<svg width="182" height="22" viewBox="0 0 182 22" fill="none" xmlns="http://www.w3.org/2000/svg">
<path d="M0 11.6924H8.58778V20.2802C3.84488 20.2802 0 16.4353 0 11.6924Z" fill="#FDBA2D"/>
<path d="M0 1.71973H8.58778V10.3075H0V1.71973Z" fill="#F07846"/>
<path d="M9.41602 11.6924H18.0037C18.0037 16.4353 14.1589 20.2802 9.41602 20.2802V11.6924Z" fill="#AF70EE"/>
<path d="M13.7099 10.3075C16.0813 10.3075 18.0038 8.38506 18.0038 6.01361C18.0038 3.64216 16.0813 1.71973 13.7099 1.71973C11.3385 1.71973 9.41602 3.64216 9.41602 6.01361C9.41602 8.38506 11.3385 10.3075 13.7099 10.3075Z" fill="#09C2B2"/>
<path d="M26.5879 19.9539V1.29199H32.9781C35.2967 1.29199 37.0781 1.88575 38.3222 3.07336C39.5852 4.26092 40.2167 5.98575 40.2167 8.24777C40.2167 10.5098 39.5946 12.2346 38.3505 13.4222C37.1252 14.591 35.3344 15.1753 32.9781 15.1753H29.0196V19.9539H26.5879ZM32.9781 12.7153C34.6558 12.7153 35.8717 12.3571 36.6257 11.6408C37.3797 10.9245 37.7567 9.79353 37.7567 8.24777C37.7567 6.66432 37.3797 5.52388 36.6257 4.82646C35.8905 4.11013 34.6747 3.75194 32.9781 3.75194H29.0196V12.7153H32.9781ZM44.9252 19.9539H42.4653V1.29199H44.9252V19.9539Z" fill="#AF70EE"/>
<mask id="mask0_1338_214380" style="mask-type:luminance" maskUnits="userSpaceOnUse" x="26" y="0" width="20" height="22">
<path d="M45.7299 0.227539H26.0039V21.0495H45.7299V0.227539Z" fill="white"/>
<path d="M26.5869 19.9539V1.29199H32.9772C35.2957 1.29199 37.0771 1.88575 38.3213 3.07336C39.5842 4.26092 40.2157 5.98575 40.2157 8.24777C40.2157 10.5098 39.5937 12.2346 38.3495 13.4222C37.1242 14.591 35.3334 15.1753 32.9772 15.1753H29.0186V19.9539H26.5869ZM32.9772 12.7153C34.6549 12.7153 35.8707 12.3571 36.6247 11.6408C37.3787 10.9245 37.7557 9.79353 37.7557 8.24777C37.7557 6.66432 37.3787 5.52388 36.6247 4.82646C35.8895 4.11013 34.6737 3.75194 32.9772 3.75194H29.0186V12.7153H32.9772ZM44.9242 19.9539H42.4643V1.29199H44.9242V19.9539Z" fill="black"/>
</mask>
<g mask="url(#mask0_1338_214380)">
<path d="M26.587 19.954H26.0215V20.5195H26.587V19.954ZM26.587 1.2921V0.726562H26.0215V1.2921H26.587ZM38.3214 3.07347L37.9309 3.48251L37.934 3.48541L38.3214 3.07347ZM29.0187 15.1754V14.6099H28.4532V15.1754H29.0187ZM29.0187 19.954V20.5195H29.5842V19.954H29.0187ZM36.6248 4.82656L36.2301 5.23155L36.2354 5.2367L36.2408 5.24169L36.6248 4.82656ZM29.0187 3.75204V3.18656H28.4532V3.75204H29.0187ZM29.0187 12.7154H28.4532V13.2809H29.0187V12.7154ZM27.1525 19.954V1.2921H26.0215V19.954H27.1525ZM26.587 1.85758H32.9773V0.726562H26.587V1.85758ZM32.9773 1.85758C35.2021 1.85758 36.8242 2.42612 37.9309 3.48251L38.7118 2.66437C37.3303 1.34563 35.3896 0.726562 32.9773 0.726562V1.85758ZM37.934 3.48541C39.0513 4.53615 39.6503 6.09188 39.6503 8.24788H40.7813C40.7813 5.87982 40.1173 3.98591 38.7087 2.66147L37.934 3.48541ZM39.6503 8.24788C39.6503 10.4063 39.0593 11.9631 37.9591 13.0132L38.74 13.8315C40.128 12.5065 40.7813 10.6135 40.7813 8.24788H39.6503ZM37.9591 13.0132C36.8744 14.048 35.2457 14.6099 32.9773 14.6099V15.7409C35.4214 15.7409 37.3742 15.1342 38.74 13.8315L37.9591 13.0132ZM32.9773 14.6099H29.0187V15.7409H32.9773V14.6099ZM28.4532 15.1754V19.954H29.5842V15.1754H28.4532ZM29.0187 19.3884H26.587V20.5195H29.0187V19.3884ZM32.9773 13.2809C34.7153 13.2809 36.1067 12.9131 37.0143 12.0509L36.2353 11.2309C35.6349 11.8014 34.5946 12.1499 32.9773 12.1499V13.2809ZM37.0143 12.0509C37.9256 11.1852 38.3214 9.87325 38.3214 8.24788H37.1903C37.1903 9.71396 36.8321 10.6641 36.2353 11.2309L37.0143 12.0509ZM38.3214 8.24788C38.3214 6.59128 37.9287 5.26223 37.0088 4.41138L36.2408 5.24169C36.829 5.7858 37.1903 6.73763 37.1903 8.24788H38.3214ZM37.0195 4.42152C36.1278 3.5527 34.7303 3.18656 32.9773 3.18656V4.31758C34.6174 4.31758 35.6515 4.66777 36.2301 5.23155L37.0195 4.42152ZM32.9773 3.18656H29.0187V4.31758H32.9773V3.18656ZM28.4532 3.75204V12.7154H29.5842V3.75204H28.4532ZM29.0187 13.2809H32.9773V12.1499H29.0187V13.2809ZM44.9243 19.954V20.5195H45.4899V19.954H44.9243ZM42.4644 19.954H41.8989V20.5195H42.4644V19.954ZM42.4644 1.2921V0.726562H41.8989V1.2921H42.4644ZM44.9243 1.2921H45.4899V0.726562H44.9243V1.2921ZM44.9243 19.3884H42.4644V20.5195H44.9243V19.3884ZM43.0299 19.954V1.2921H41.8989V19.954H43.0299ZM42.4644 1.85758H44.9243V0.726562H42.4644V1.85758ZM44.3589 1.2921V19.954H45.4899V1.2921H44.3589Z" fill="#AF70EE"/>
</g>
<path d="M97.0587 11.6969C97.0587 13.2237 96.6253 14.6469 95.7579 15.9664C94.9096 17.2671 93.76 18.3039 92.3085 19.0768C90.857 19.8496 89.2921 20.236 87.6148 20.236C85.8614 20.236 84.2406 19.8025 82.7513 18.9354C81.2812 18.0683 80.1124 16.8995 79.245 15.4292C78.3968 13.94 77.9727 12.3095 77.9727 10.5375C77.9727 8.72793 78.3968 7.09735 79.245 5.64585C80.0932 4.17555 81.2527 3.02568 82.7228 2.19626C84.1935 1.36683 85.8236 0.952148 87.6148 0.952148C89.1606 0.952148 90.5836 1.28201 91.8844 1.94179C93.1847 2.60152 94.2406 3.54404 95.051 4.7693L93.2417 6.23966C91.7902 4.35461 89.9518 3.41209 87.7277 3.41209C86.3518 3.41209 85.1074 3.72311 83.9951 4.34519C82.8833 4.96727 82.0066 5.82497 81.3655 6.91828C80.7436 7.99275 80.4329 9.19916 80.4329 10.5375C80.4329 11.9136 80.7529 13.1577 81.394 14.2699C82.0351 15.3632 82.902 16.2209 83.9951 16.843C85.1074 17.465 86.314 17.7761 87.6148 17.7761C88.7836 17.7761 89.8954 17.5216 90.9513 17.0126C92.0258 16.4848 92.8927 15.7591 93.5524 14.8354C94.2121 13.8929 94.542 12.8467 94.542 11.6969H86.8795V9.23686H97.0587V11.6969Z" fill="#AF70EE"/>
<mask id="mask1_1338_214380" style="mask-type:luminance" maskUnits="userSpaceOnUse" x="77" y="0" width="21" height="22">
<path d="M97.6636 0.227539H77.3896V21.0495H97.6636V0.227539Z" fill="white"/>
<path d="M97.0587 11.6969C97.0587 13.2237 96.6253 14.6469 95.7579 15.9664C94.9096 17.2671 93.76 18.3039 92.3085 19.0768C90.857 19.8496 89.2921 20.236 87.6148 20.236C85.8614 20.236 84.2406 19.8025 82.7513 18.9354C81.2812 18.0683 80.1124 16.8995 79.245 15.4292C78.3968 13.94 77.9727 12.3095 77.9727 10.5375C77.9727 8.72793 78.3968 7.09735 79.245 5.64585C80.0932 4.17555 81.2527 3.02568 82.7228 2.19626C84.1935 1.36683 85.8236 0.952148 87.6148 0.952148C89.1606 0.952148 90.5836 1.28201 91.8844 1.94179C93.1847 2.60152 94.2406 3.54404 95.051 4.7693L93.2417 6.23966C91.7902 4.35461 89.9518 3.41209 87.7277 3.41209C86.3518 3.41209 85.1074 3.72311 83.9951 4.34519C82.8833 4.96727 82.0066 5.82497 81.3655 6.91828C80.7436 7.99275 80.4329 9.19916 80.4329 10.5375C80.4329 11.9136 80.7529 13.1577 81.394 14.2699C82.0351 15.3632 82.902 16.2209 83.9951 16.843C85.1074 17.465 86.314 17.7761 87.6148 17.7761C88.7836 17.7761 89.8954 17.5216 90.9513 17.0126C92.0258 16.4848 92.8927 15.7591 93.5524 14.8354C94.2121 13.8929 94.542 12.8467 94.542 11.6969H86.8795V9.23686H97.0587V11.6969Z" fill="black"/>
</mask>
<g mask="url(#mask1_1338_214380)">
<path d="M95.7579 15.9666L95.2856 15.656L95.2845 15.6576L95.7579 15.9666ZM82.7513 18.9355L82.4642 19.4226L82.4669 19.4242L82.7513 18.9355ZM79.245 15.4293L78.7535 15.7092L78.7557 15.7129L78.7579 15.7166L79.245 15.4293ZM79.245 5.64595L79.7333 5.93132L79.7349 5.92858L79.245 5.64595ZM95.0511 4.7694L95.4078 5.20831L95.8056 4.88502L95.5228 4.4574L95.0511 4.7694ZM93.2417 6.23976L92.7935 6.58475L93.1475 7.04469L93.5979 6.67866L93.2417 6.23976ZM81.3656 6.91839L80.8779 6.63236L80.8763 6.63505L81.3656 6.91839ZM81.3941 14.27L80.9042 14.5524L80.9064 14.556L81.3941 14.27ZM83.9952 16.8431L83.7157 17.3346L83.7196 17.3366L83.9952 16.8431ZM90.9513 17.0127L91.1968 17.5222L91.2007 17.5203L90.9513 17.0127ZM93.5524 14.8355L94.0127 15.1643L94.016 15.1598L93.5524 14.8355ZM94.542 11.697H95.1075V11.1314H94.542V11.697ZM86.8796 11.697H86.3141V12.2624H86.8796V11.697ZM86.8796 9.23697V8.67143H86.3141V9.23697H86.8796ZM97.0587 9.23697H97.6242V8.67143H97.0587V9.23697ZM96.4933 11.697C96.4933 13.1095 96.0944 14.4253 95.2856 15.656L96.2308 16.2771C97.1563 14.8687 97.6242 13.3381 97.6242 11.697H96.4933ZM95.2845 15.6576C94.4916 16.8736 93.4149 17.8469 92.0428 18.5777L92.5743 19.576C94.1048 18.761 95.3283 17.6608 96.2319 16.2755L95.2845 15.6576ZM92.0428 18.5777C90.6746 19.3061 89.2017 19.6707 87.6149 19.6707V20.8017C89.3831 20.8017 91.039 20.3933 92.5743 19.576L92.0428 18.5777ZM87.6149 19.6707C85.9596 19.6707 84.4374 19.2627 83.0357 18.4468L82.4669 19.4242C84.0439 20.3425 85.7634 20.8017 87.6149 20.8017V19.6707ZM83.0385 18.4484C81.6505 17.6299 80.5508 16.5299 79.7322 15.1421L78.7579 15.7166C79.6735 17.2693 80.9113 18.5068 82.4642 19.4226L83.0385 18.4484ZM79.7365 15.1494C78.9387 13.7485 78.5382 12.2149 78.5382 10.5376H77.4072C77.4072 12.4043 77.8554 14.1318 78.7535 15.7092L79.7365 15.1494ZM78.5382 10.5376C78.5382 8.82036 78.9398 7.28962 79.7333 5.93132L78.7568 5.36064C77.8543 6.90529 77.4072 8.63565 77.4072 10.5376H78.5382ZM79.7349 5.92858C80.5327 4.5454 81.6193 3.46831 83.0006 2.68891L82.445 1.70381C80.8861 2.58327 79.6538 3.80584 78.7552 5.36338L79.7349 5.92858ZM83.0006 2.68891C84.3815 1.91023 85.9152 1.51773 87.6149 1.51773V0.386719C85.7327 0.386719 84.0056 0.82365 82.445 1.70381L83.0006 2.68891ZM87.6149 1.51773C89.0768 1.51773 90.4116 1.82908 91.6286 2.44623L92.1404 1.43751C90.7557 0.735157 89.2439 0.386719 87.6149 0.386719V1.51773ZM91.6286 2.44623C92.8412 3.06129 93.8226 3.93724 94.5793 5.08146L95.5228 4.4574C94.6587 3.15105 93.5289 2.14195 92.1404 1.43751L91.6286 2.44623ZM94.6943 4.33055L92.885 5.80086L93.5979 6.67866L95.4078 5.20831L94.6943 4.33055ZM93.6894 5.89472C92.1398 3.88184 90.1415 2.84666 87.7278 2.84666V3.97773C89.7628 3.97773 91.4407 4.8276 92.7935 6.58475L93.6894 5.89472ZM87.7278 2.84666C86.2631 2.84666 84.9228 3.17877 83.7196 3.85176L84.2713 4.83883C85.2927 4.2677 86.4407 3.97773 87.7278 3.97773V2.84666ZM83.7196 3.85176C82.5201 4.52261 81.57 5.45176 80.8779 6.63236L81.8538 7.20436C82.4434 6.19834 83.2467 5.41209 84.2713 4.83883L83.7196 3.85176ZM80.8763 6.63505C80.2006 7.80228 79.867 9.10776 79.867 10.5376H80.9985C80.9985 9.29077 81.2867 8.18338 81.8554 7.20173L80.8763 6.63505ZM79.867 10.5376C79.867 12.0055 80.21 13.3481 80.9042 14.5524L81.8839 13.9876C81.296 12.9675 80.9985 11.822 80.9985 10.5376H79.867ZM80.9064 14.556C81.5968 15.7342 82.5354 16.6631 83.7157 17.3346L84.2752 16.3516C83.2686 15.7789 82.473 14.9924 81.8817 13.984L80.9064 14.556ZM83.7196 17.3366C84.9179 18.0069 86.2193 18.3417 87.6149 18.3417V17.2107C86.4089 17.2107 85.2976 16.9234 84.2713 16.3495L83.7196 17.3366ZM87.6149 18.3417C88.8686 18.3417 90.0648 18.068 91.1968 17.5222L90.7059 16.5034C89.7261 16.9755 88.6982 17.2107 87.6149 17.2107V18.3417ZM91.2007 17.5203C92.3541 16.9536 93.2954 16.1683 94.0127 15.1643L93.0922 14.5068C92.49 15.3502 91.6971 16.0163 90.702 16.5052L91.2007 17.5203ZM94.016 15.1598C94.742 14.1223 95.1075 12.9629 95.1075 11.697H93.9765C93.9765 12.7307 93.6823 13.6637 93.0894 14.5112L94.016 15.1598ZM94.542 11.1314H86.8796V12.2624H94.542V11.1314ZM87.445 11.697V9.23697H86.3141V11.697H87.445ZM86.8796 9.8025H97.0587V8.67143H86.8796V9.8025ZM96.4933 9.23697V11.697H97.6242V9.23697H96.4933Z" fill="#AF70EE"/>
</g>
<path d="M163.044 19.9539L163.072 1.29199H170.594C173.968 1.29199 176.503 2.08372 178.2 3.66711C179.896 5.23172 180.744 7.55029 180.744 10.6229C180.744 13.6956 179.868 16.0236 178.115 17.607C176.38 19.1716 173.874 19.9539 170.594 19.9539H163.044ZM170.65 17.4939C173.27 17.4939 175.193 16.9378 176.418 15.8256C177.663 14.7135 178.284 12.9792 178.284 10.6229C178.284 8.21007 177.681 6.4664 176.475 5.39194C175.269 4.29862 173.327 3.75194 170.65 3.75194H165.504V17.4939H170.65Z" fill="#AF70EE"/>
<mask id="mask2_1338_214380" style="mask-type:luminance" maskUnits="userSpaceOnUse" x="162" y="0" width="20" height="22">
<path d="M181.639 0.227539H162.461V21.0495H181.639V0.227539Z" fill="white"/>
<path d="M163.044 19.9539L163.072 1.29199H170.594C173.968 1.29199 176.503 2.08372 178.2 3.66711C179.896 5.23172 180.744 7.55029 180.744 10.6229C180.744 13.6956 179.868 16.0236 178.115 17.607C176.38 19.1716 173.874 19.9539 170.594 19.9539H163.044ZM170.65 17.4939C173.27 17.4939 175.193 16.9378 176.418 15.8256C177.663 14.7135 178.284 12.9792 178.284 10.6229C178.284 8.21007 177.681 6.4664 176.475 5.39194C175.269 4.29862 173.327 3.75194 170.65 3.75194H165.504V17.4939H170.65Z" fill="black"/>
</mask>
<g mask="url(#mask2_1338_214380)">
<path d="M163.044 19.954L162.479 19.9531L162.478 20.5195H163.044V19.954ZM163.073 1.2921V0.726562H162.508L162.507 1.29122L163.073 1.2921ZM178.2 3.66722L177.814 4.08065L177.816 4.08295L178.2 3.66722ZM176.418 15.8257L176.041 15.4041L176.038 15.407L176.418 15.8257ZM176.475 5.39204L176.095 5.81111L176.099 5.81434L176.475 5.39204ZM165.504 3.75204V3.18656H164.938V3.75204H165.504ZM165.504 17.494H164.938V18.0595H165.504V17.494ZM163.61 19.9548L163.638 1.29297L162.507 1.29122L162.479 19.9531L163.61 19.9548ZM163.073 1.85758H170.594V0.726562H163.073V1.85758ZM170.594 1.85758C173.889 1.85758 176.261 2.63144 177.814 4.08065L178.585 3.2538C176.745 1.53615 174.047 0.726562 170.594 0.726562V1.85758ZM177.816 4.08295C179.362 5.50826 180.179 7.65352 180.179 10.623H181.31C181.31 7.44728 180.431 4.95538 178.583 3.25149L177.816 4.08295ZM180.179 10.623C180.179 13.5866 179.337 15.7412 177.736 17.1874L178.494 18.027C180.399 16.3063 181.31 13.8046 181.31 10.623H180.179ZM177.736 17.1874C176.141 18.6263 173.79 19.3884 170.594 19.3884V20.5195C173.957 20.5195 176.62 19.7172 178.494 18.027L177.736 17.1874ZM170.594 19.3884H163.044V20.5195H170.594V19.3884ZM170.65 18.0595C173.333 18.0595 175.423 17.493 176.799 16.2445L176.038 15.407C174.963 16.3828 173.208 16.9285 170.65 16.9285V18.0595ZM176.795 16.2473C178.202 14.9895 178.85 13.072 178.85 10.623H177.719C177.719 12.8867 177.122 14.4376 176.041 15.4041L176.795 16.2473ZM178.85 10.623C178.85 8.12914 178.227 6.19533 176.851 4.96974L176.099 5.81434C177.136 6.73774 177.719 8.29122 177.719 10.623H178.85ZM176.855 4.97303C175.495 3.74081 173.383 3.18656 170.65 3.18656V4.31758C173.271 4.31758 175.042 4.8567 176.095 5.81111L176.855 4.97303ZM170.65 3.18656H165.504V4.31758H170.65V3.18656ZM164.938 3.75204V17.494H166.069V3.75204H164.938ZM165.504 18.0595H170.65V16.9285H165.504V18.0595Z" fill="#AF70EE"/>
</g>
<path d="M57.0701 2.4502C59.6998 2.4502 61.8203 4.57085 61.8203 7.2005V20.9707H59.8411V7.39841C59.8411 5.75841 58.5122 4.42948 56.8722 4.42948H49.0682V2.4502H57.0701ZM53.4791 8.19014C56.9853 8.19014 59.8411 11.0743 59.8411 14.5804C59.8411 18.0583 56.9853 20.9707 53.4791 20.9707C49.9447 20.9707 47.0889 18.1149 47.0889 14.5804C47.0889 11.046 49.9447 8.19014 53.4791 8.19014ZM53.4791 18.9914C55.9108 18.9914 57.8901 17.0121 57.8901 14.5804C57.8901 12.1487 55.9108 10.1694 53.4791 10.1694C51.0474 10.1694 49.0399 12.1487 49.0399 14.5804C49.0399 17.0121 51.0192 18.9914 53.4791 18.9914ZM74.0438 2.4502H75.9945V16.2204C75.9945 18.85 73.874 20.9707 71.2729 20.9707H63.2422V18.9914H71.0466C72.7145 18.9914 74.0438 17.6624 74.0438 16.0225V9.94324C72.8844 11.0177 71.3293 11.6963 69.6329 11.6963C66.0981 11.6963 63.2422 8.86872 63.2422 5.33431V2.4502H65.1934V5.33431C65.1934 7.76598 67.2011 9.74526 69.6329 9.74526C72.0641 9.74526 74.0153 7.76598 74.0438 5.36258V2.4502Z" fill="#AF70EE"/>
<mask id="mask3_1338_214380" style="mask-type:luminance" maskUnits="userSpaceOnUse" x="46" y="1" width="32" height="21">
<path d="M77.0668 1.49902H46.3818V21.773H77.0668V1.49902Z" fill="white"/>
<path d="M57.0701 2.4502C59.6998 2.4502 61.8203 4.57085 61.8203 7.2005V20.9707H59.8411V7.39841C59.8411 5.75841 58.5122 4.42948 56.8722 4.42948H49.0682V2.4502H57.0701ZM53.4791 8.19014C56.9853 8.19014 59.8411 11.0743 59.8411 14.5804C59.8411 18.0583 56.9853 20.9707 53.4791 20.9707C49.9447 20.9707 47.0889 18.1149 47.0889 14.5804C47.0889 11.046 49.9447 8.19014 53.4791 8.19014ZM53.4791 18.9914C55.9108 18.9914 57.8901 17.0121 57.8901 14.5804C57.8901 12.1487 55.9108 10.1694 53.4791 10.1694C51.0474 10.1694 49.0399 12.1487 49.0399 14.5804C49.0399 17.0121 51.0192 18.9914 53.4791 18.9914ZM74.0438 2.4502H75.9945V16.2204C75.9945 18.85 73.874 20.9707 71.2729 20.9707H63.2422V18.9914H71.0466C72.7145 18.9914 74.0438 17.6624 74.0438 16.0225V9.94324C72.8844 11.0177 71.3293 11.6963 69.6329 11.6963C66.0981 11.6963 63.2422 8.86872 63.2422 5.33431V2.4502H65.1934V5.33431C65.1934 7.76598 67.2011 9.74526 69.6329 9.74526C72.0641 9.74526 74.0153 7.76598 74.0438 5.36258V2.4502Z" fill="black"/>
</mask>
<g mask="url(#mask3_1338_214380)">
<path d="M61.8204 20.9708V21.5363H62.3858V20.9708H61.8204ZM59.8412 20.9708H59.2757V21.5363H59.8412V20.9708ZM49.0683 4.42959H48.5027V4.99507H49.0683V4.42959ZM49.0683 2.4503V1.88477H48.5027V2.4503H49.0683ZM57.0702 3.01578C59.3875 3.01578 61.2549 4.88329 61.2549 7.2006H62.3858C62.3858 4.25863 60.0122 1.88477 57.0702 1.88477V3.01578ZM61.2549 7.2006V20.9708H62.3858V7.2006H61.2549ZM61.8204 20.4053H59.8412V21.5363H61.8204V20.4053ZM60.4067 20.9708V7.39852H59.2757V20.9708H60.4067ZM60.4067 7.39852C60.4067 5.44619 58.8246 3.86405 56.8723 3.86405V4.99507C58.2 4.99507 59.2757 6.07085 59.2757 7.39852H60.4067ZM56.8723 3.86405H49.0683V4.99507H56.8723V3.86405ZM49.6337 4.42959V2.4503H48.5027V4.42959H49.6337ZM49.0683 3.01578H57.0702V1.88477H49.0683V3.01578ZM53.4792 8.75572C56.6698 8.75572 59.2757 11.3834 59.2757 14.5805H60.4067C60.4067 10.7653 57.301 7.62471 53.4792 7.62471V8.75572ZM59.2757 14.5805C59.2757 17.751 56.6682 20.4053 53.4792 20.4053V21.5363C57.3026 21.5363 60.4067 18.3658 60.4067 14.5805H59.2757ZM53.4792 20.4053C50.2571 20.4053 47.6545 17.8026 47.6545 14.5805H46.5234C46.5234 18.4273 49.6325 21.5363 53.4792 21.5363V20.4053ZM47.6545 14.5805C47.6545 11.3584 50.2571 8.75572 53.4792 8.75572V7.62471C49.6325 7.62471 46.5234 10.7338 46.5234 14.5805H47.6545ZM53.4792 19.557C56.2233 19.557 58.4557 17.3245 58.4557 14.5805H57.3247C57.3247 16.6999 55.5986 18.426 53.4792 18.426V19.557ZM58.4557 14.5805C58.4557 11.8365 56.2233 9.604 53.4792 9.604V10.735C55.5986 10.735 57.3247 12.4611 57.3247 14.5805H58.4557ZM53.4792 9.604C50.7399 9.604 48.4745 11.8318 48.4745 14.5805H49.6055C49.6055 12.4658 51.3552 10.735 53.4792 10.735V9.604ZM48.4745 14.5805C48.4745 17.3269 50.7093 19.557 53.4792 19.557V18.426C51.3292 18.426 49.6055 16.6975 49.6055 14.5805H48.4745ZM74.0439 2.4503V1.88477H73.4785V2.4503H74.0439ZM75.9946 2.4503H76.5601V1.88477H75.9946V2.4503ZM63.2423 20.9708H62.6768V21.5363H63.2423V20.9708ZM63.2423 18.9915V18.426H62.6768V18.9915H63.2423ZM74.0439 9.94334H74.6094V8.64811L73.6593 9.52855L74.0439 9.94334ZM63.2423 2.4503V1.88477H62.6768V2.4503H63.2423ZM65.1935 2.4503H65.759V1.88477H65.1935V2.4503ZM74.0439 5.36268L74.6094 5.36931V5.36268H74.0439ZM74.0439 3.01578H75.9946V1.88477H74.0439V3.01578ZM75.4291 2.4503V16.2205H76.5601V2.4503H75.4291ZM75.4291 16.2205C75.4291 18.54 73.5595 20.4053 71.273 20.4053V21.5363C74.1886 21.5363 76.5601 19.1602 76.5601 16.2205H75.4291ZM71.273 20.4053H63.2423V21.5363H71.273V20.4053ZM63.8078 20.9708V18.9915H62.6768V20.9708H63.8078ZM63.2423 19.557H71.0467V18.426H63.2423V19.557ZM71.0467 19.557C73.0237 19.557 74.6094 17.9784 74.6094 16.0226H73.4785C73.4785 17.3467 72.4061 18.426 71.0467 18.426V19.557ZM74.6094 16.0226V9.94334H73.4785V16.0226H74.6094ZM73.6593 9.52855C72.5968 10.5136 71.176 11.1309 69.633 11.1309V12.2619C71.4823 12.2619 73.1721 11.522 74.428 10.3581L73.6593 9.52855ZM69.633 11.1309C66.4072 11.1309 63.8078 8.55326 63.8078 5.33441H62.6768C62.6768 9.18444 65.7891 12.2619 69.633 12.2619V11.1309ZM63.8078 5.33441V2.4503H62.6768V5.33441H63.8078ZM63.2423 3.01578H65.1935V1.88477H63.2423V3.01578ZM64.628 2.4503V5.33441H65.759V2.4503H64.628ZM64.628 5.33441C64.628 8.08312 66.8932 10.3109 69.633 10.3109V9.17989C67.5086 9.17989 65.759 7.44909 65.759 5.33441H64.628ZM69.633 10.3109C72.3804 10.3109 74.5776 8.07622 74.6094 5.36931L73.4785 5.356C73.4538 7.456 71.7486 9.17989 69.633 9.17989V10.3109ZM74.6094 5.36268V2.4503H73.4785V5.36268H74.6094Z" fill="#AF70EE"/>
</g>
<path d="M111.806 8.32292C111.806 11.716 109.148 14.5152 105.755 14.6849L111.806 20.4531H108.95L101.033 12.9318H101.004V20.4531H99.0537V8.32292C99.0537 4.78845 101.91 1.93262 105.444 1.93262C108.978 1.93262 111.806 4.78845 111.806 8.32292ZM102.418 11.5463C103.21 12.2815 104.284 12.7339 105.444 12.7339C107.847 12.7339 109.855 10.7263 109.855 8.32292C109.855 5.89119 107.876 3.9119 105.444 3.9119C103.012 3.9119 101.061 5.83464 101.004 8.26637V8.37947C101.033 9.56703 101.513 10.6415 102.305 11.4332L102.418 11.5463ZM122.465 1.93262C127.583 1.93262 131.739 6.08917 131.739 11.1788C131.739 16.2966 127.583 20.4531 122.465 20.4531C117.375 20.4531 113.219 16.2966 113.219 11.1788C113.219 6.08917 117.375 1.93262 122.465 1.93262ZM129.76 11.1788C129.76 7.16363 126.509 3.9119 122.465 3.9119C118.45 3.9119 115.17 7.16363 115.17 11.1788C115.17 15.2222 118.45 18.4738 122.465 18.4738C126.509 18.4738 129.76 15.2222 129.76 11.1788ZM139.97 15.5614C136.209 15.5614 133.156 12.5077 133.156 8.74703V1.93262H135.106V8.74703C135.106 11.4332 137.284 13.6104 139.97 13.6104C142.656 13.6104 144.833 11.4332 144.833 8.74703V1.93262H146.784V8.74703C146.784 12.5077 143.73 15.5614 139.97 15.5614ZM133.156 18.4738H146.784V20.4531H133.156V18.4738ZM154.595 1.93262C158.129 1.93262 160.957 4.78845 160.957 8.32292V20.4531H159.005V8.32292C159.005 5.89119 157.026 3.9119 154.595 3.9119C152.135 3.9119 150.156 5.86292 150.156 8.32292V20.4531H148.204V8.32292C148.204 4.78845 151.06 1.93262 154.595 1.93262Z" fill="#AF70EE"/>
<mask id="mask4_1338_214380" style="mask-type:luminance" maskUnits="userSpaceOnUse" x="98" y="0" width="64" height="22">
<path d="M161.908 0.982422H98.3467V21.2564H161.908V0.982422Z" fill="white"/>
<path d="M111.806 8.32389C111.806 11.7169 109.148 14.5162 105.755 14.6859L111.806 20.4541H108.95L101.033 12.9328H101.004V20.4541H99.0537V8.32389C99.0537 4.78943 101.91 1.93359 105.444 1.93359C108.978 1.93359 111.806 4.78943 111.806 8.32389ZM102.418 11.5473C103.21 12.2825 104.284 12.7349 105.444 12.7349C107.847 12.7349 109.855 10.7273 109.855 8.32389C109.855 5.89217 107.876 3.91288 105.444 3.91288C103.012 3.91288 101.061 5.83562 101.004 8.26735V8.38044C101.033 9.568 101.513 10.6425 102.305 11.4342L102.418 11.5473ZM122.465 1.93359C127.583 1.93359 131.739 6.09014 131.739 11.1797C131.739 16.2976 127.583 20.4541 122.465 20.4541C117.375 20.4541 113.219 16.2976 113.219 11.1797C113.219 6.09014 117.375 1.93359 122.465 1.93359ZM129.76 11.1797C129.76 7.16461 126.509 3.91288 122.465 3.91288C118.45 3.91288 115.17 7.16461 115.17 11.1797C115.17 15.2231 118.45 18.4748 122.465 18.4748C126.509 18.4748 129.76 15.2231 129.76 11.1797ZM139.97 15.5624C136.209 15.5624 133.156 12.5087 133.156 8.748V1.93359H135.106V8.748C135.106 11.4342 137.284 13.6114 139.97 13.6114C142.656 13.6114 144.833 11.4342 144.833 8.748V1.93359H146.784V8.748C146.784 12.5087 143.73 15.5624 139.97 15.5624ZM133.156 18.4748H146.784V20.4541H133.156V18.4748ZM154.595 1.93359C158.129 1.93359 160.957 4.78943 160.957 8.32389V20.4541H159.005V8.32389C159.005 5.89217 157.026 3.91288 154.595 3.91288C152.135 3.91288 150.156 5.8639 150.156 8.32389V20.4541H148.204V8.32389C148.204 4.78943 151.06 1.93359 154.595 1.93359Z" fill="black"/>
</mask>
<g mask="url(#mask4_1338_214380)">
<path d="M105.754 14.6861L105.725 14.089L104.335 14.1585L105.342 15.119L105.754 14.6861ZM111.806 20.4543V21.0523H113.299L112.218 20.0216L111.806 20.4543ZM108.95 20.4543L108.538 20.8879L108.711 21.0523H108.95V20.4543ZM101.033 12.9331L101.444 12.4996L101.272 12.3351H101.033V12.9331ZM101.004 12.9331V12.3351H100.406V12.9331H101.004ZM101.004 20.4543V21.0523H101.602V20.4543H101.004ZM99.0534 20.4543H98.4551V21.0523H99.0534V20.4543ZM102.418 11.5476L101.995 11.9703L102.003 11.9782L102.011 11.9857L102.418 11.5476ZM101.004 8.26761L100.406 8.25369V8.26065V8.26761H101.004ZM101.004 8.3807H100.406V8.38783V8.39495L101.004 8.3807ZM111.207 8.32416C111.207 11.399 108.799 13.9352 105.725 14.089L105.784 15.2833C109.496 15.0977 112.404 12.0354 112.404 8.32416H111.207ZM105.342 15.119L111.393 20.8872L112.218 20.0216L106.167 14.2534L105.342 15.119ZM111.806 19.8564H108.95V21.0523H111.806V19.8564ZM109.361 20.0209L101.444 12.4996L100.621 13.3666L108.538 20.8879L109.361 20.0209ZM101.033 12.3351H101.004V13.531H101.033V12.3351ZM100.406 12.9331V20.4543H101.602V12.9331H100.406ZM101.004 19.8564H99.0534V21.0523H101.004V19.8564ZM99.6512 20.4543V8.32416H98.4551V20.4543H99.6512ZM99.6512 8.32416C99.6512 5.11994 102.239 2.53177 105.444 2.53177V1.33594C101.579 1.33594 98.4551 4.4595 98.4551 8.32416H99.6512ZM105.444 2.53177C108.644 2.53177 111.207 5.11649 111.207 8.32416H112.404C112.404 4.46295 109.312 1.33594 105.444 1.33594V2.53177ZM102.011 11.9857C102.909 12.8199 104.128 13.3331 105.444 13.3331V12.1372C104.44 12.1372 103.51 11.7456 102.825 11.1094L102.011 11.9857ZM105.444 13.3331C108.177 13.3331 110.452 11.0578 110.452 8.32416H109.257C109.257 10.3974 107.516 12.1372 105.444 12.1372V13.3331ZM110.452 8.32416C110.452 5.56224 108.205 3.31523 105.444 3.31523V4.51106C107.545 4.51106 109.257 6.22268 109.257 8.32416H110.452ZM105.444 3.31523C102.684 3.31523 100.47 5.50027 100.406 8.25369L101.602 8.28147C101.651 6.1715 103.339 4.51106 105.444 4.51106V3.31523ZM100.406 8.26761V8.3807H101.602V8.26761H100.406ZM100.406 8.39495C100.439 9.73846 100.983 10.9586 101.882 11.8573L102.728 11.0117C102.043 10.3269 101.627 9.39807 101.602 8.36646L100.406 8.39495ZM101.882 11.8573L101.995 11.9703L102.841 11.1248L102.728 11.0117L101.882 11.8573ZM122.465 2.53177C127.253 2.53177 131.141 6.4218 131.141 11.18H132.337C132.337 5.75895 127.912 1.33594 122.465 1.33594V2.53177ZM131.141 11.18C131.141 15.9676 127.252 19.8564 122.465 19.8564V21.0523C127.913 21.0523 132.337 16.6281 132.337 11.18H131.141ZM122.465 19.8564C117.707 19.8564 113.817 15.9688 113.817 11.18H112.621C112.621 16.6269 117.044 21.0523 122.465 21.0523V19.8564ZM113.817 11.18C113.817 6.4206 117.705 2.53177 122.465 2.53177V1.33594C117.045 1.33594 112.621 5.76016 112.621 11.18H113.817ZM130.358 11.18C130.358 6.83309 126.837 3.31523 122.465 3.31523V4.51106C126.179 4.51106 129.162 7.4966 129.162 11.18H130.358ZM122.465 3.31523C118.122 3.31523 114.572 6.83161 114.572 11.18H115.767C115.767 7.49808 118.777 4.51106 122.465 4.51106V3.31523ZM114.572 11.18C114.572 15.5551 118.121 19.073 122.465 19.073V17.8771C118.778 17.8771 115.767 14.8917 115.767 11.18H114.572ZM122.465 19.073C126.838 19.073 130.358 15.5536 130.358 11.18H129.162C129.162 14.8931 126.178 17.8771 122.465 17.8771V19.073ZM133.155 1.93386V1.33594H132.557V1.93386H133.155ZM135.106 1.93386H135.704V1.33594H135.106V1.93386ZM144.833 1.93386V1.33594H144.235V1.93386H144.833ZM146.784 1.93386H147.382V1.33594H146.784V1.93386ZM133.155 18.4751V17.8771H132.557V18.4751H133.155ZM146.784 18.4751H147.382V17.8771H146.784V18.4751ZM146.784 20.4543V21.0523H147.382V20.4543H146.784ZM133.155 20.4543H132.557V21.0523H133.155V20.4543ZM139.97 14.9648C136.539 14.9648 133.753 12.1787 133.753 8.74827H132.557C132.557 12.8392 135.879 16.1606 139.97 16.1606V14.9648ZM133.753 8.74827V1.93386H132.557V8.74827H133.753ZM133.155 2.53177H135.106V1.33594H133.155V2.53177ZM134.508 1.93386V8.74827H135.704V1.93386H134.508ZM134.508 8.74827C134.508 11.7647 136.953 14.2096 139.97 14.2096V13.0137C137.613 13.0137 135.704 11.1042 135.704 8.74827H134.508ZM139.97 14.2096C142.986 14.2096 145.431 11.7647 145.431 8.74827H144.235C144.235 11.1042 142.325 13.0137 139.97 13.0137V14.2096ZM145.431 8.74827V1.93386H144.235V8.74827H145.431ZM144.833 2.53177H146.784V1.33594H144.833V2.53177ZM146.186 1.93386V8.74827H147.382V1.93386H146.186ZM146.186 8.74827C146.186 12.1787 143.4 14.9648 139.97 14.9648V16.1606C144.061 16.1606 147.382 12.8392 147.382 8.74827H146.186ZM133.155 19.073H146.784V17.8771H133.155V19.073ZM146.186 18.4751V20.4543H147.382V18.4751H146.186ZM146.784 19.8564H133.155V21.0523H146.784V19.8564ZM133.753 20.4543V18.4751H132.557V20.4543H133.753ZM160.956 20.4543V21.0523H161.554V20.4543H160.956ZM159.005 20.4543H158.407V21.0523H159.005V20.4543ZM150.155 20.4543V21.0523H150.753V20.4543H150.155ZM148.204 20.4543H147.606V21.0523H148.204V20.4543ZM154.594 2.53177C157.795 2.53177 160.359 5.11649 160.359 8.32416H161.554C161.554 4.46295 158.463 1.33594 154.594 1.33594V2.53177ZM160.359 8.32416V20.4543H161.554V8.32416H160.359ZM160.956 19.8564H159.005V21.0523H160.956V19.8564ZM159.603 20.4543V8.32416H158.407V20.4543H159.603ZM159.603 8.32416C159.603 5.56224 157.356 3.31523 154.594 3.31523V4.51106C156.696 4.51106 158.407 6.22268 158.407 8.32416H159.603ZM154.594 3.31523C151.809 3.31523 149.557 5.52898 149.557 8.32416H150.753C150.753 6.19939 152.459 4.51106 154.594 4.51106V3.31523ZM149.557 8.32416V20.4543H150.753V8.32416H149.557ZM150.155 19.8564H148.204V21.0523H150.155V19.8564ZM148.802 20.4543V8.32416H147.606V20.4543H148.802ZM148.802 8.32416C148.802 5.11994 151.39 2.53177 154.594 2.53177V1.33594C150.73 1.33594 147.606 4.4595 147.606 8.32416H148.802Z" fill="#AF70EE"/>
</g>
</svg>
