<svg width="182" height="22" viewBox="0 0 182 22" fill="none" xmlns="http://www.w3.org/2000/svg">
<path d="M0 11.4648H8.58778V20.0526C3.84488 20.0526 0 16.2077 0 11.4648Z" fill="#FDBA2D"/>
<path d="M0 1.49219H8.58778V10.08H0V1.49219Z" fill="#F07846"/>
<path d="M9.41602 11.4648H18.0037C18.0037 16.2077 14.1589 20.0526 9.41602 20.0526V11.4648Z" fill="#AF70EE"/>
<path d="M13.7099 10.08C16.0813 10.08 18.0038 8.15752 18.0038 5.78607C18.0038 3.41463 16.0813 1.49219 13.7099 1.49219C11.3385 1.49219 9.41602 3.41463 9.41602 5.78607C9.41602 8.15752 11.3385 10.08 13.7099 10.08Z" fill="#09C2B2"/>
<path d="M26.5879 19.7263V1.06445H32.9781C35.2967 1.06445 37.0781 1.65821 38.3222 2.84582C39.5852 4.03338 40.2167 5.75821 40.2167 8.02023C40.2167 10.2823 39.5946 12.0071 38.3505 13.1946C37.1252 14.3634 35.3344 14.9477 32.9781 14.9477H29.0196V19.7263H26.5879ZM32.9781 12.4878C34.6558 12.4878 35.8717 12.1296 36.6257 11.4133C37.3797 10.697 37.7567 9.56599 37.7567 8.02023C37.7567 6.43678 37.3797 5.29634 36.6257 4.59892C35.8905 3.88259 34.6747 3.5244 32.9781 3.5244H29.0196V12.4878H32.9781ZM44.9252 19.7263H42.4653V1.06445H44.9252V19.7263Z" fill="#AF70EE"/>
<mask id="mask0_3038_69651" style="mask-type:luminance" maskUnits="userSpaceOnUse" x="26" y="0" width="20" height="21">
<path d="M45.7299 0H26.0039V20.8219H45.7299V0Z" fill="white"/>
<path d="M26.5869 19.7263V1.06445H32.9772C35.2957 1.06445 37.0771 1.65821 38.3213 2.84582C39.5842 4.03338 40.2157 5.75821 40.2157 8.02023C40.2157 10.2823 39.5937 12.0071 38.3495 13.1946C37.1242 14.3634 35.3334 14.9477 32.9772 14.9477H29.0186V19.7263H26.5869ZM32.9772 12.4878C34.6549 12.4878 35.8707 12.1296 36.6247 11.4133C37.3787 10.697 37.7557 9.56599 37.7557 8.02023C37.7557 6.43678 37.3787 5.29634 36.6247 4.59892C35.8895 3.88259 34.6737 3.5244 32.9772 3.5244H29.0186V12.4878H32.9772ZM44.9242 19.7263H42.4643V1.06445H44.9242V19.7263Z" fill="black"/>
</mask>
<g mask="url(#mask0_3038_69651)">
<path d="M26.587 19.7264H26.0215V20.292H26.587V19.7264ZM26.587 1.06456V0.499023H26.0215V1.06456H26.587ZM38.3214 2.84593L37.9309 3.25497L37.934 3.25787L38.3214 2.84593ZM29.0187 14.9478V14.3824H28.4532V14.9478H29.0187ZM29.0187 19.7264V20.292H29.5842V19.7264H29.0187ZM36.6248 4.59902L36.2301 5.00401L36.2354 5.00916L36.2408 5.01415L36.6248 4.59902ZM29.0187 3.5245V2.95902H28.4532V3.5245H29.0187ZM29.0187 12.4879H28.4532V13.0534H29.0187V12.4879ZM27.1525 19.7264V1.06456H26.0215V19.7264H27.1525ZM26.587 1.63004H32.9773V0.499023H26.587V1.63004ZM32.9773 1.63004C35.2021 1.63004 36.8242 2.19859 37.9309 3.25497L38.7118 2.43683C37.3303 1.11809 35.3896 0.499023 32.9773 0.499023V1.63004ZM37.934 3.25787C39.0513 4.30861 39.6503 5.86434 39.6503 8.02034H40.7813C40.7813 5.65228 40.1173 3.75837 38.7087 2.43393L37.934 3.25787ZM39.6503 8.02034C39.6503 10.1788 39.0593 11.7355 37.9591 12.7857L38.74 13.604C40.128 12.279 40.7813 10.386 40.7813 8.02034H39.6503ZM37.9591 12.7857C36.8744 13.8204 35.2457 14.3824 32.9773 14.3824V15.5134C35.4214 15.5134 37.3742 14.9067 38.74 13.604L37.9591 12.7857ZM32.9773 14.3824H29.0187V15.5134H32.9773V14.3824ZM28.4532 14.9478V19.7264H29.5842V14.9478H28.4532ZM29.0187 19.1609H26.587V20.292H29.0187V19.1609ZM32.9773 13.0534C34.7153 13.0534 36.1067 12.6856 37.0143 11.8234L36.2353 11.0034C35.6349 11.5738 34.5946 11.9224 32.9773 11.9224V13.0534ZM37.0143 11.8234C37.9256 10.9577 38.3214 9.64571 38.3214 8.02034H37.1903C37.1903 9.48642 36.8321 10.4366 36.2353 11.0034L37.0143 11.8234ZM38.3214 8.02034C38.3214 6.36374 37.9287 5.03469 37.0088 4.18385L36.2408 5.01415C36.829 5.55826 37.1903 6.51009 37.1903 8.02034H38.3214ZM37.0195 4.19398C36.1278 3.32516 34.7303 2.95902 32.9773 2.95902V4.09004C34.6174 4.09004 35.6515 4.44023 36.2301 5.00401L37.0195 4.19398ZM32.9773 2.95902H29.0187V4.09004H32.9773V2.95902ZM28.4532 3.5245V12.4879H29.5842V3.5245H28.4532ZM29.0187 13.0534H32.9773V11.9224H29.0187V13.0534ZM44.9243 19.7264V20.292H45.4899V19.7264H44.9243ZM42.4644 19.7264H41.8989V20.292H42.4644V19.7264ZM42.4644 1.06456V0.499023H41.8989V1.06456H42.4644ZM44.9243 1.06456H45.4899V0.499023H44.9243V1.06456ZM44.9243 19.1609H42.4644V20.292H44.9243V19.1609ZM43.0299 19.7264V1.06456H41.8989V19.7264H43.0299ZM42.4644 1.63004H44.9243V0.499023H42.4644V1.63004ZM44.3589 1.06456V19.7264H45.4899V1.06456H44.3589Z" fill="#AF70EE"/>
</g>
<path d="M97.0587 11.4693C97.0587 12.9962 96.6253 14.4194 95.7579 15.7389C94.9096 17.0396 93.76 18.0763 92.3085 18.8492C90.857 19.6221 89.2921 20.0085 87.6148 20.0085C85.8614 20.0085 84.2406 19.575 82.7513 18.7078C81.2812 17.8407 80.1124 16.672 79.245 15.2016C78.3968 13.7125 77.9727 12.0819 77.9727 10.31C77.9727 8.50039 78.3968 6.86981 79.245 5.41831C80.0932 3.94801 81.2527 2.79814 82.7228 1.96872C84.1935 1.13929 85.8236 0.724609 87.6148 0.724609C89.1606 0.724609 90.5836 1.05447 91.8844 1.71425C93.1847 2.37398 94.2406 3.3165 95.051 4.54176L93.2417 6.01212C91.7902 4.12708 89.9518 3.18455 87.7277 3.18455C86.3518 3.18455 85.1074 3.49557 83.9951 4.11765C82.8833 4.73973 82.0066 5.59743 81.3655 6.69075C80.7436 7.76521 80.4329 8.97162 80.4329 10.31C80.4329 11.6861 80.7529 12.9302 81.394 14.0424C82.0351 15.1357 82.902 15.9934 83.9951 16.6155C85.1074 17.2375 86.314 17.5486 87.6148 17.5486C88.7836 17.5486 89.8954 17.2941 90.9513 16.7851C92.0258 16.2573 92.8927 15.5316 93.5524 14.6079C94.2121 13.6654 94.542 12.6192 94.542 11.4693H86.8795V9.00932H97.0587V11.4693Z" fill="#AF70EE"/>
<mask id="mask1_3038_69651" style="mask-type:luminance" maskUnits="userSpaceOnUse" x="77" y="0" width="21" height="21">
<path d="M97.6636 0H77.3896V20.8219H97.6636V0Z" fill="white"/>
<path d="M97.0587 11.4693C97.0587 12.9962 96.6253 14.4194 95.7579 15.7389C94.9096 17.0396 93.76 18.0763 92.3085 18.8492C90.857 19.6221 89.2921 20.0085 87.6148 20.0085C85.8614 20.0085 84.2406 19.575 82.7513 18.7078C81.2812 17.8407 80.1124 16.672 79.245 15.2016C78.3968 13.7125 77.9727 12.0819 77.9727 10.31C77.9727 8.50039 78.3968 6.86981 79.245 5.41831C80.0932 3.94801 81.2527 2.79814 82.7228 1.96872C84.1935 1.13929 85.8236 0.724609 87.6148 0.724609C89.1606 0.724609 90.5836 1.05447 91.8844 1.71425C93.1847 2.37398 94.2406 3.3165 95.051 4.54176L93.2417 6.01212C91.7902 4.12708 89.9518 3.18455 87.7277 3.18455C86.3518 3.18455 85.1074 3.49557 83.9951 4.11765C82.8833 4.73973 82.0066 5.59743 81.3655 6.69075C80.7436 7.76521 80.4329 8.97162 80.4329 10.31C80.4329 11.6861 80.7529 12.9302 81.394 14.0424C82.0351 15.1357 82.902 15.9934 83.9951 16.6155C85.1074 17.2375 86.314 17.5486 87.6148 17.5486C88.7836 17.5486 89.8954 17.2941 90.9513 16.7851C92.0258 16.2573 92.8927 15.5316 93.5524 14.6079C94.2121 13.6654 94.542 12.6192 94.542 11.4693H86.8795V9.00932H97.0587V11.4693Z" fill="black"/>
</mask>
<g mask="url(#mask1_3038_69651)">
<path d="M95.7579 15.739L95.2856 15.4284L95.2845 15.4301L95.7579 15.739ZM82.7513 18.7079L82.4642 19.1951L82.4669 19.1967L82.7513 18.7079ZM79.245 15.2018L78.7535 15.4817L78.7557 15.4854L78.7579 15.489L79.245 15.2018ZM79.245 5.41841L79.7333 5.70378L79.7349 5.70104L79.245 5.41841ZM95.0511 4.54186L95.4078 4.98077L95.8056 4.65748L95.5228 4.22987L95.0511 4.54186ZM93.2417 6.01222L92.7935 6.35721L93.1475 6.81715L93.5979 6.45112L93.2417 6.01222ZM81.3656 6.69085L80.8779 6.40482L80.8763 6.40751L81.3656 6.69085ZM81.3941 14.0425L80.9042 14.3248L80.9064 14.3284L81.3941 14.0425ZM83.9952 16.6156L83.7157 17.1071L83.7196 17.1091L83.9952 16.6156ZM90.9513 16.7852L91.1968 17.2946L91.2007 17.2928L90.9513 16.7852ZM93.5524 14.608L94.0127 14.9367L94.016 14.9323L93.5524 14.608ZM94.542 11.4694H95.1075V10.9039H94.542V11.4694ZM86.8796 11.4694H86.3141V12.0349H86.8796V11.4694ZM86.8796 9.00943V8.44389H86.3141V9.00943H86.8796ZM97.0587 9.00943H97.6242V8.44389H97.0587V9.00943ZM96.4933 11.4694C96.4933 12.882 96.0944 14.1978 95.2856 15.4284L96.2308 16.0496C97.1563 14.6412 97.6242 13.1106 97.6242 11.4694H96.4933ZM95.2845 15.4301C94.4916 16.6461 93.4149 17.6194 92.0428 18.3501L92.5743 19.3485C94.1048 18.5335 95.3283 17.4333 96.2319 16.0479L95.2845 15.4301ZM92.0428 18.3501C90.6746 19.0786 89.2017 19.4431 87.6149 19.4431V20.5741C89.3831 20.5741 91.039 20.1658 92.5743 19.3485L92.0428 18.3501ZM87.6149 19.4431C85.9596 19.4431 84.4374 19.0351 83.0357 18.2192L82.4669 19.1967C84.0439 20.115 85.7634 20.5741 87.6149 20.5741V19.4431ZM83.0385 18.2208C81.6505 17.4024 80.5508 16.3024 79.7322 14.9145L78.7579 15.489C79.6735 17.0418 80.9113 18.2793 82.4642 19.1951L83.0385 18.2208ZM79.7365 14.9219C78.9387 13.5209 78.5382 11.9873 78.5382 10.3101H77.4072C77.4072 12.1767 77.8554 13.9042 78.7535 15.4817L79.7365 14.9219ZM78.5382 10.3101C78.5382 8.59282 78.9398 7.06208 79.7333 5.70378L78.7568 5.1331C77.8543 6.67775 77.4072 8.40811 77.4072 10.3101H78.5382ZM79.7349 5.70104C80.5327 4.31786 81.6193 3.24077 83.0006 2.46137L82.445 1.47628C80.8861 2.35573 79.6538 3.5783 78.7552 5.13584L79.7349 5.70104ZM83.0006 2.46137C84.3815 1.68269 85.9152 1.29019 87.6149 1.29019V0.15918C85.7327 0.15918 84.0056 0.596111 82.445 1.47628L83.0006 2.46137ZM87.6149 1.29019C89.0768 1.29019 90.4116 1.60154 91.6286 2.21869L92.1404 1.20997C90.7557 0.507618 89.2439 0.15918 87.6149 0.15918V1.29019ZM91.6286 2.21869C92.8412 2.83376 93.8226 3.7097 94.5793 4.85392L95.5228 4.22987C94.6587 2.92351 93.5289 1.91441 92.1404 1.20997L91.6286 2.21869ZM94.6943 4.10302L92.885 5.57332L93.5979 6.45112L95.4078 4.98077L94.6943 4.10302ZM93.6894 5.66718C92.1398 3.6543 90.1415 2.61912 87.7278 2.61912V3.75019C89.7628 3.75019 91.4407 4.60006 92.7935 6.35721L93.6894 5.66718ZM87.7278 2.61912C86.2631 2.61912 84.9228 2.95123 83.7196 3.62422L84.2713 4.61129C85.2927 4.04017 86.4407 3.75019 87.7278 3.75019V2.61912ZM83.7196 3.62422C82.5201 4.29507 81.57 5.22422 80.8779 6.40482L81.8538 6.97682C82.4434 5.9708 83.2467 5.18455 84.2713 4.61129L83.7196 3.62422ZM80.8763 6.40751C80.2006 7.57474 79.867 8.88022 79.867 10.3101H80.9985C80.9985 9.06323 81.2867 7.95584 81.8554 6.97419L80.8763 6.40751ZM79.867 10.3101C79.867 11.7779 80.21 13.1206 80.9042 14.3248L81.8839 13.7601C81.296 12.74 80.9985 11.5945 80.9985 10.3101H79.867ZM80.9064 14.3284C81.5968 15.5067 82.5354 16.4356 83.7157 17.1071L84.2752 16.1241C83.2686 15.5514 82.473 14.7649 81.8817 13.7565L80.9064 14.3284ZM83.7196 17.1091C84.9179 17.7793 86.2193 18.1141 87.6149 18.1141V16.9831C86.4089 16.9831 85.2976 16.6959 84.2713 16.122L83.7196 17.1091ZM87.6149 18.1141C88.8686 18.1141 90.0648 17.8404 91.1968 17.2946L90.7059 16.2758C89.7261 16.7479 88.6982 16.9831 87.6149 16.9831V18.1141ZM91.2007 17.2928C92.3541 16.726 93.2954 15.9408 94.0127 14.9367L93.0922 14.2793C92.49 15.1226 91.6971 15.7888 90.702 16.2776L91.2007 17.2928ZM94.016 14.9323C94.742 13.8948 95.1075 12.7353 95.1075 11.4694H93.9765C93.9765 12.5032 93.6823 13.4362 93.0894 14.2837L94.016 14.9323ZM94.542 10.9039H86.8796V12.0349H94.542V10.9039ZM87.445 11.4694V9.00943H86.3141V11.4694H87.445ZM86.8796 9.57496H97.0587V8.44389H86.8796V9.57496ZM96.4933 9.00943V11.4694H97.6242V9.00943H96.4933Z" fill="#AF70EE"/>
</g>
<path d="M163.044 19.7263L163.072 1.06445H170.594C173.968 1.06445 176.503 1.85618 178.2 3.43958C179.896 5.00418 180.744 7.32275 180.744 10.3954C180.744 13.468 179.868 15.796 178.115 17.3795C176.38 18.944 173.874 19.7263 170.594 19.7263H163.044ZM170.65 17.2663C173.27 17.2663 175.193 16.7103 176.418 15.5981C177.663 14.4859 178.284 12.7517 178.284 10.3954C178.284 7.98254 177.681 6.23886 176.475 5.1644C175.269 4.07108 173.327 3.5244 170.65 3.5244H165.504V17.2663H170.65Z" fill="#AF70EE"/>
<mask id="mask2_3038_69651" style="mask-type:luminance" maskUnits="userSpaceOnUse" x="162" y="0" width="20" height="21">
<path d="M181.639 0H162.461V20.8219H181.639V0Z" fill="white"/>
<path d="M163.044 19.7263L163.072 1.06445H170.594C173.968 1.06445 176.503 1.85618 178.2 3.43958C179.896 5.00418 180.744 7.32275 180.744 10.3954C180.744 13.468 179.868 15.796 178.115 17.3795C176.38 18.944 173.874 19.7263 170.594 19.7263H163.044ZM170.65 17.2663C173.27 17.2663 175.193 16.7103 176.418 15.5981C177.663 14.4859 178.284 12.7517 178.284 10.3954C178.284 7.98254 177.681 6.23886 176.475 5.1644C175.269 4.07108 173.327 3.5244 170.65 3.5244H165.504V17.2663H170.65Z" fill="black"/>
</mask>
<g mask="url(#mask2_3038_69651)">
<path d="M163.044 19.7264L162.479 19.7255L162.478 20.292H163.044V19.7264ZM163.073 1.06456V0.499023H162.508L162.507 1.06368L163.073 1.06456ZM178.2 3.43968L177.814 3.85311L177.816 3.85541L178.2 3.43968ZM176.418 15.5982L176.041 15.1766L176.038 15.1795L176.418 15.5982ZM176.475 5.1645L176.095 5.58357L176.099 5.5868L176.475 5.1645ZM165.504 3.5245V2.95902H164.938V3.5245H165.504ZM165.504 17.2664H164.938V17.832H165.504V17.2664ZM163.61 19.7273L163.638 1.06543L162.507 1.06368L162.479 19.7255L163.61 19.7273ZM163.073 1.63004H170.594V0.499023H163.073V1.63004ZM170.594 1.63004C173.889 1.63004 176.261 2.4039 177.814 3.85311L178.585 3.02626C176.745 1.30861 174.047 0.499023 170.594 0.499023V1.63004ZM177.816 3.85541C179.362 5.28072 180.179 7.42598 180.179 10.3955H181.31C181.31 7.21974 180.431 4.72785 178.583 3.02395L177.816 3.85541ZM180.179 10.3955C180.179 13.3591 179.337 15.5137 177.736 16.9599L178.494 17.7995C180.399 16.0788 181.31 13.5771 181.31 10.3955H180.179ZM177.736 16.9599C176.141 18.3987 173.79 19.1609 170.594 19.1609V20.292C173.957 20.292 176.62 19.4897 178.494 17.7995L177.736 16.9599ZM170.594 19.1609H163.044V20.292H170.594V19.1609ZM170.65 17.832C173.333 17.832 175.423 17.2654 176.799 16.0169L176.038 15.1795C174.963 16.1553 173.208 16.7009 170.65 16.7009V17.832ZM176.795 16.0198C178.202 14.762 178.85 12.8444 178.85 10.3955H177.719C177.719 12.6591 177.122 14.21 176.041 15.1766L176.795 16.0198ZM178.85 10.3955C178.85 7.9016 178.227 5.96779 176.851 4.7422L176.099 5.5868C177.136 6.5102 177.719 8.06368 177.719 10.3955H178.85ZM176.855 4.74549C175.495 3.51327 173.383 2.95902 170.65 2.95902V4.09004C173.271 4.09004 175.042 4.62916 176.095 5.58357L176.855 4.74549ZM170.65 2.95902H165.504V4.09004H170.65V2.95902ZM164.938 3.5245V17.2664H166.069V3.5245H164.938ZM165.504 17.832H170.65V16.7009H165.504V17.832Z" fill="#AF70EE"/>
</g>
<path d="M57.0701 2.22266C59.6998 2.22266 61.8203 4.34331 61.8203 6.97296V20.7431H59.8411V7.17088C59.8411 5.53088 58.5122 4.20194 56.8722 4.20194H49.0682V2.22266H57.0701ZM53.4791 7.9626C56.9853 7.9626 59.8411 10.8467 59.8411 14.3528C59.8411 17.8308 56.9853 20.7431 53.4791 20.7431C49.9447 20.7431 47.0889 17.8873 47.0889 14.3528C47.0889 10.8184 49.9447 7.9626 53.4791 7.9626ZM53.4791 18.7639C55.9108 18.7639 57.8901 16.7846 57.8901 14.3528C57.8901 11.9212 55.9108 9.94189 53.4791 9.94189C51.0474 9.94189 49.0399 11.9212 49.0399 14.3528C49.0399 16.7846 51.0192 18.7639 53.4791 18.7639ZM74.0438 2.22266H75.9945V15.9928C75.9945 18.6225 73.874 20.7431 71.2729 20.7431H63.2422V18.7639H71.0466C72.7145 18.7639 74.0438 17.4349 74.0438 15.7949V9.7157C72.8844 10.7902 71.3293 11.4687 69.6329 11.4687C66.0981 11.4687 63.2422 8.64118 63.2422 5.10677V2.22266H65.1934V5.10677C65.1934 7.53844 67.2011 9.51772 69.6329 9.51772C72.0641 9.51772 74.0153 7.53844 74.0438 5.13504V2.22266Z" fill="#AF70EE"/>
<mask id="mask3_3038_69651" style="mask-type:luminance" maskUnits="userSpaceOnUse" x="46" y="1" width="32" height="21">
<path d="M77.0668 1.27148H46.3818V21.5455H77.0668V1.27148Z" fill="white"/>
<path d="M57.0701 2.22266C59.6998 2.22266 61.8203 4.34331 61.8203 6.97296V20.7431H59.8411V7.17088C59.8411 5.53088 58.5122 4.20194 56.8722 4.20194H49.0682V2.22266H57.0701ZM53.4791 7.9626C56.9853 7.9626 59.8411 10.8467 59.8411 14.3528C59.8411 17.8308 56.9853 20.7431 53.4791 20.7431C49.9447 20.7431 47.0889 17.8873 47.0889 14.3528C47.0889 10.8184 49.9447 7.9626 53.4791 7.9626ZM53.4791 18.7639C55.9108 18.7639 57.8901 16.7846 57.8901 14.3528C57.8901 11.9212 55.9108 9.94189 53.4791 9.94189C51.0474 9.94189 49.0399 11.9212 49.0399 14.3528C49.0399 16.7846 51.0192 18.7639 53.4791 18.7639ZM74.0438 2.22266H75.9945V15.9928C75.9945 18.6225 73.874 20.7431 71.2729 20.7431H63.2422V18.7639H71.0466C72.7145 18.7639 74.0438 17.4349 74.0438 15.7949V9.7157C72.8844 10.7902 71.3293 11.4687 69.6329 11.4687C66.0981 11.4687 63.2422 8.64118 63.2422 5.10677V2.22266H65.1934V5.10677C65.1934 7.53844 67.2011 9.51772 69.6329 9.51772C72.0641 9.51772 74.0153 7.53844 74.0438 5.13504V2.22266Z" fill="black"/>
</mask>
<g mask="url(#mask3_3038_69651)">
<path d="M61.8204 20.7433V21.3087H62.3858V20.7433H61.8204ZM59.8412 20.7433H59.2757V21.3087H59.8412V20.7433ZM49.0683 4.20205H48.5027V4.76753H49.0683V4.20205ZM49.0683 2.22276V1.65723H48.5027V2.22276H49.0683ZM57.0702 2.78824C59.3875 2.78824 61.2549 4.65575 61.2549 6.97306H62.3858C62.3858 4.03109 60.0122 1.65723 57.0702 1.65723V2.78824ZM61.2549 6.97306V20.7433H62.3858V6.97306H61.2549ZM61.8204 20.1777H59.8412V21.3087H61.8204V20.1777ZM60.4067 20.7433V7.17098H59.2757V20.7433H60.4067ZM60.4067 7.17098C60.4067 5.21865 58.8246 3.63652 56.8723 3.63652V4.76753C58.2 4.76753 59.2757 5.84331 59.2757 7.17098H60.4067ZM56.8723 3.63652H49.0683V4.76753H56.8723V3.63652ZM49.6337 4.20205V2.22276H48.5027V4.20205H49.6337ZM49.0683 2.78824H57.0702V1.65723H49.0683V2.78824ZM53.4792 8.52819C56.6698 8.52819 59.2757 11.1559 59.2757 14.353H60.4067C60.4067 10.5377 57.301 7.39717 53.4792 7.39717V8.52819ZM59.2757 14.353C59.2757 17.5234 56.6682 20.1777 53.4792 20.1777V21.3087C57.3026 21.3087 60.4067 18.1383 60.4067 14.353H59.2757ZM53.4792 20.1777C50.2571 20.1777 47.6545 17.5751 47.6545 14.353H46.5234C46.5234 18.1997 49.6325 21.3087 53.4792 21.3087V20.1777ZM47.6545 14.353C47.6545 11.1309 50.2571 8.52819 53.4792 8.52819V7.39717C49.6325 7.39717 46.5234 10.5062 46.5234 14.353H47.6545ZM53.4792 19.3294C56.2233 19.3294 58.4557 17.097 58.4557 14.353H57.3247C57.3247 16.4724 55.5986 18.1984 53.4792 18.1984V19.3294ZM58.4557 14.353C58.4557 11.609 56.2233 9.37646 53.4792 9.37646V10.5075C55.5986 10.5075 57.3247 12.2336 57.3247 14.353H58.4557ZM53.4792 9.37646C50.7399 9.37646 48.4745 11.6042 48.4745 14.353H49.6055C49.6055 12.2383 51.3552 10.5075 53.4792 10.5075V9.37646ZM48.4745 14.353C48.4745 17.0994 50.7093 19.3294 53.4792 19.3294V18.1984C51.3292 18.1984 49.6055 16.47 49.6055 14.353H48.4745ZM74.0439 2.22276V1.65723H73.4785V2.22276H74.0439ZM75.9946 2.22276H76.5601V1.65723H75.9946V2.22276ZM63.2423 20.7433H62.6768V21.3087H63.2423V20.7433ZM63.2423 18.764V18.1984H62.6768V18.764H63.2423ZM74.0439 9.7158H74.6094V8.42057L73.6593 9.30101L74.0439 9.7158ZM63.2423 2.22276V1.65723H62.6768V2.22276H63.2423ZM65.1935 2.22276H65.759V1.65723H65.1935V2.22276ZM74.0439 5.13514L74.6094 5.14177V5.13514H74.0439ZM74.0439 2.78824H75.9946V1.65723H74.0439V2.78824ZM75.4291 2.22276V15.993H76.5601V2.22276H75.4291ZM75.4291 15.993C75.4291 18.3125 73.5595 20.1777 71.273 20.1777V21.3087C74.1886 21.3087 76.5601 18.9327 76.5601 15.993H75.4291ZM71.273 20.1777H63.2423V21.3087H71.273V20.1777ZM63.8078 20.7433V18.764H62.6768V20.7433H63.8078ZM63.2423 19.3294H71.0467V18.1984H63.2423V19.3294ZM71.0467 19.3294C73.0237 19.3294 74.6094 17.7508 74.6094 15.795H73.4785C73.4785 17.1192 72.4061 18.1984 71.0467 18.1984V19.3294ZM74.6094 15.795V9.7158H73.4785V15.795H74.6094ZM73.6593 9.30101C72.5968 10.286 71.176 10.9034 69.633 10.9034V12.0344C71.4823 12.0344 73.1721 11.2945 74.428 10.1305L73.6593 9.30101ZM69.633 10.9034C66.4072 10.9034 63.8078 8.32572 63.8078 5.10687H62.6768C62.6768 8.9569 65.7891 12.0344 69.633 12.0344V10.9034ZM63.8078 5.10687V2.22276H62.6768V5.10687H63.8078ZM63.2423 2.78824H65.1935V1.65723H63.2423V2.78824ZM64.628 2.22276V5.10687H65.759V2.22276H64.628ZM64.628 5.10687C64.628 7.85558 66.8932 10.0834 69.633 10.0834V8.95235C67.5086 8.95235 65.759 7.22156 65.759 5.10687H64.628ZM69.633 10.0834C72.3804 10.0834 74.5776 7.84868 74.6094 5.14177L73.4785 5.12846C73.4538 7.22846 71.7486 8.95235 69.633 8.95235V10.0834ZM74.6094 5.13514V2.22276H73.4785V5.13514H74.6094Z" fill="#AF70EE"/>
</g>
<path d="M111.806 8.09538C111.806 11.4884 109.148 14.2877 105.755 14.4574L111.806 20.2256H108.95L101.033 12.7043H101.004V20.2256H99.0537V8.09538C99.0537 4.56091 101.91 1.70508 105.444 1.70508C108.978 1.70508 111.806 4.56091 111.806 8.09538ZM102.418 11.3188C103.21 12.054 104.284 12.5063 105.444 12.5063C107.847 12.5063 109.855 10.4988 109.855 8.09538C109.855 5.66365 107.876 3.68437 105.444 3.68437C103.012 3.68437 101.061 5.60711 101.004 8.03883V8.15193C101.033 9.33949 101.513 10.414 102.305 11.2057L102.418 11.3188ZM122.465 1.70508C127.583 1.70508 131.739 5.86163 131.739 10.9512C131.739 16.0691 127.583 20.2256 122.465 20.2256C117.375 20.2256 113.219 16.0691 113.219 10.9512C113.219 5.86163 117.375 1.70508 122.465 1.70508ZM129.76 10.9512C129.76 6.93609 126.509 3.68437 122.465 3.68437C118.45 3.68437 115.17 6.93609 115.17 10.9512C115.17 14.9946 118.45 18.2463 122.465 18.2463C126.509 18.2463 129.76 14.9946 129.76 10.9512ZM139.97 15.3339C136.209 15.3339 133.156 12.2801 133.156 8.51949V1.70508H135.106V8.51949C135.106 11.2057 137.284 13.3829 139.97 13.3829C142.656 13.3829 144.833 11.2057 144.833 8.51949V1.70508H146.784V8.51949C146.784 12.2801 143.73 15.3339 139.97 15.3339ZM133.156 18.2463H146.784V20.2256H133.156V18.2463ZM154.595 1.70508C158.129 1.70508 160.957 4.56091 160.957 8.09538V20.2256H159.005V8.09538C159.005 5.66365 157.026 3.68437 154.595 3.68437C152.135 3.68437 150.156 5.63538 150.156 8.09538V20.2256H148.204V8.09538C148.204 4.56091 151.06 1.70508 154.595 1.70508Z" fill="#AF70EE"/>
<mask id="mask4_3038_69651" style="mask-type:luminance" maskUnits="userSpaceOnUse" x="98" y="0" width="64" height="22">
<path d="M161.908 0.754883H98.3467V21.0289H161.908V0.754883Z" fill="white"/>
<path d="M111.806 8.09636C111.806 11.4894 109.148 14.2887 105.755 14.4583L111.806 20.2265H108.95L101.033 12.7053H101.004V20.2265H99.0537V8.09636C99.0537 4.56189 101.91 1.70605 105.444 1.70605C108.978 1.70605 111.806 4.56189 111.806 8.09636ZM102.418 11.3198C103.21 12.0549 104.284 12.5073 105.444 12.5073C107.847 12.5073 109.855 10.4998 109.855 8.09636C109.855 5.66463 107.876 3.68534 105.444 3.68534C103.012 3.68534 101.061 5.60808 101.004 8.03981V8.1529C101.033 9.34047 101.513 10.4149 102.305 11.2067L102.418 11.3198ZM122.465 1.70605C127.583 1.70605 131.739 5.8626 131.739 10.9522C131.739 16.0701 127.583 20.2265 122.465 20.2265C117.375 20.2265 113.219 16.0701 113.219 10.9522C113.219 5.8626 117.375 1.70605 122.465 1.70605ZM129.76 10.9522C129.76 6.93707 126.509 3.68534 122.465 3.68534C118.45 3.68534 115.17 6.93707 115.17 10.9522C115.17 14.9956 118.45 18.2473 122.465 18.2473C126.509 18.2473 129.76 14.9956 129.76 10.9522ZM139.97 15.3349C136.209 15.3349 133.156 12.2811 133.156 8.52047V1.70605H135.106V8.52047C135.106 11.2067 137.284 13.3839 139.97 13.3839C142.656 13.3839 144.833 11.2067 144.833 8.52047V1.70605H146.784V8.52047C146.784 12.2811 143.73 15.3349 139.97 15.3349ZM133.156 18.2473H146.784V20.2265H133.156V18.2473ZM154.595 1.70605C158.129 1.70605 160.957 4.56189 160.957 8.09636V20.2265H159.005V8.09636C159.005 5.66463 157.026 3.68534 154.595 3.68534C152.135 3.68534 150.156 5.63636 150.156 8.09636V20.2265H148.204V8.09636C148.204 4.56189 151.06 1.70605 154.595 1.70605Z" fill="black"/>
</mask>
<g mask="url(#mask4_3038_69651)">
<path d="M105.754 14.4586L105.725 13.8614L104.335 13.9309L105.342 14.8914L105.754 14.4586ZM111.806 20.2268V20.8247H113.299L112.218 19.794L111.806 20.2268ZM108.95 20.2268L108.538 20.6603L108.711 20.8247H108.95V20.2268ZM101.033 12.7055L101.444 12.272L101.272 12.1076H101.033V12.7055ZM101.004 12.7055V12.1076H100.406V12.7055H101.004ZM101.004 20.2268V20.8247H101.602V20.2268H101.004ZM99.0534 20.2268H98.4551V20.8247H99.0534V20.2268ZM102.418 11.32L101.995 11.7428L102.003 11.7506L102.011 11.7582L102.418 11.32ZM101.004 8.04007L100.406 8.02615V8.03311V8.04007H101.004ZM101.004 8.15316H100.406V8.16029V8.16741L101.004 8.15316ZM111.207 8.09662C111.207 11.1714 108.799 13.7077 105.725 13.8614L105.784 15.0558C109.496 14.8702 112.404 11.8079 112.404 8.09662H111.207ZM105.342 14.8914L111.393 20.6596L112.218 19.794L106.167 14.0258L105.342 14.8914ZM111.806 19.6289H108.95V20.8247H111.806V19.6289ZM109.361 19.7933L101.444 12.272L100.621 13.139L108.538 20.6603L109.361 19.7933ZM101.033 12.1076H101.004V13.3035H101.033V12.1076ZM100.406 12.7055V20.2268H101.602V12.7055H100.406ZM101.004 19.6289H99.0534V20.8247H101.004V19.6289ZM99.6512 20.2268V8.09662H98.4551V20.2268H99.6512ZM99.6512 8.09662C99.6512 4.8924 102.239 2.30423 105.444 2.30423V1.1084C101.579 1.1084 98.4551 4.23196 98.4551 8.09662H99.6512ZM105.444 2.30423C108.644 2.30423 111.207 4.88895 111.207 8.09662H112.404C112.404 4.23541 109.312 1.1084 105.444 1.1084V2.30423ZM102.011 11.7582C102.909 12.5923 104.128 13.1055 105.444 13.1055V11.9097C104.44 11.9097 103.51 11.518 102.825 10.8819L102.011 11.7582ZM105.444 13.1055C108.177 13.1055 110.452 10.8303 110.452 8.09662H109.257C109.257 10.1698 107.516 11.9097 105.444 11.9097V13.1055ZM110.452 8.09662C110.452 5.3347 108.205 3.08769 105.444 3.08769V4.28352C107.545 4.28352 109.257 5.99514 109.257 8.09662H110.452ZM105.444 3.08769C102.684 3.08769 100.47 5.27273 100.406 8.02615L101.602 8.05393C101.651 5.94396 103.339 4.28352 105.444 4.28352V3.08769ZM100.406 8.04007V8.15316H101.602V8.04007H100.406ZM100.406 8.16741C100.439 9.51092 100.983 10.731 101.882 11.6297L102.728 10.7841C102.043 10.0994 101.627 9.17054 101.602 8.13892L100.406 8.16741ZM101.882 11.6297L101.995 11.7428L102.841 10.8972L102.728 10.7841L101.882 11.6297ZM122.465 2.30423C127.253 2.30423 131.141 6.19426 131.141 10.9525H132.337C132.337 5.53141 127.912 1.1084 122.465 1.1084V2.30423ZM131.141 10.9525C131.141 15.7401 127.252 19.6289 122.465 19.6289V20.8247C127.913 20.8247 132.337 16.4006 132.337 10.9525H131.141ZM122.465 19.6289C117.707 19.6289 113.817 15.7413 113.817 10.9525H112.621C112.621 16.3994 117.044 20.8247 122.465 20.8247V19.6289ZM113.817 10.9525C113.817 6.19306 117.705 2.30423 122.465 2.30423V1.1084C117.045 1.1084 112.621 5.53262 112.621 10.9525H113.817ZM130.358 10.9525C130.358 6.60555 126.837 3.08769 122.465 3.08769V4.28352C126.179 4.28352 129.162 7.26906 129.162 10.9525H130.358ZM122.465 3.08769C118.122 3.08769 114.572 6.60407 114.572 10.9525H115.767C115.767 7.27054 118.777 4.28352 122.465 4.28352V3.08769ZM114.572 10.9525C114.572 15.3276 118.121 18.8454 122.465 18.8454V17.6496C118.778 17.6496 115.767 14.6641 115.767 10.9525H114.572ZM122.465 18.8454C126.838 18.8454 130.358 15.3261 130.358 10.9525H129.162C129.162 14.6656 126.178 17.6496 122.465 17.6496V18.8454ZM133.155 1.70632V1.1084H132.557V1.70632H133.155ZM135.106 1.70632H135.704V1.1084H135.106V1.70632ZM144.833 1.70632V1.1084H144.235V1.70632H144.833ZM146.784 1.70632H147.382V1.1084H146.784V1.70632ZM133.155 18.2475V17.6496H132.557V18.2475H133.155ZM146.784 18.2475H147.382V17.6496H146.784V18.2475ZM146.784 20.2268V20.8247H147.382V20.2268H146.784ZM133.155 20.2268H132.557V20.8247H133.155V20.2268ZM139.97 14.7372C136.539 14.7372 133.753 11.9512 133.753 8.52073H132.557C132.557 12.6116 135.879 15.9331 139.97 15.9331V14.7372ZM133.753 8.52073V1.70632H132.557V8.52073H133.753ZM133.155 2.30423H135.106V1.1084H133.155V2.30423ZM134.508 1.70632V8.52073H135.704V1.70632H134.508ZM134.508 8.52073C134.508 11.5372 136.953 13.982 139.97 13.982V12.7862C137.613 12.7862 135.704 10.8767 135.704 8.52073H134.508ZM139.97 13.982C142.986 13.982 145.431 11.5372 145.431 8.52073H144.235C144.235 10.8767 142.325 12.7862 139.97 12.7862V13.982ZM145.431 8.52073V1.70632H144.235V8.52073H145.431ZM144.833 2.30423H146.784V1.1084H144.833V2.30423ZM146.186 1.70632V8.52073H147.382V1.70632H146.186ZM146.186 8.52073C146.186 11.9512 143.4 14.7372 139.97 14.7372V15.9331C144.061 15.9331 147.382 12.6116 147.382 8.52073H146.186ZM133.155 18.8454H146.784V17.6496H133.155V18.8454ZM146.186 18.2475V20.2268H147.382V18.2475H146.186ZM146.784 19.6289H133.155V20.8247H146.784V19.6289ZM133.753 20.2268V18.2475H132.557V20.2268H133.753ZM160.956 20.2268V20.8247H161.554V20.2268H160.956ZM159.005 20.2268H158.407V20.8247H159.005V20.2268ZM150.155 20.2268V20.8247H150.753V20.2268H150.155ZM148.204 20.2268H147.606V20.8247H148.204V20.2268ZM154.594 2.30423C157.795 2.30423 160.359 4.88895 160.359 8.09662H161.554C161.554 4.23541 158.463 1.1084 154.594 1.1084V2.30423ZM160.359 8.09662V20.2268H161.554V8.09662H160.359ZM160.956 19.6289H159.005V20.8247H160.956V19.6289ZM159.603 20.2268V8.09662H158.407V20.2268H159.603ZM159.603 8.09662C159.603 5.3347 157.356 3.08769 154.594 3.08769V4.28352C156.696 4.28352 158.407 5.99514 158.407 8.09662H159.603ZM154.594 3.08769C151.809 3.08769 149.557 5.30144 149.557 8.09662H150.753C150.753 5.97185 152.459 4.28352 154.594 4.28352V3.08769ZM149.557 8.09662V20.2268H150.753V8.09662H149.557ZM150.155 19.6289H148.204V20.8247H150.155V19.6289ZM148.802 20.2268V8.09662H147.606V20.2268H148.802ZM148.802 8.09662C148.802 4.8924 151.39 2.30423 154.594 2.30423V1.1084C150.73 1.1084 147.606 4.23196 147.606 8.09662H148.802Z" fill="#AF70EE"/>
</g>
</svg>
