<svg width="16" height="16" viewBox="0 0 16 16" fill="none" xmlns="http://www.w3.org/2000/svg">
<path d="M-0.000902561 7.99765C-0.0023959 8.34744 0.0187137 8.69696 0.0622941 9.04402C0.259542 10.5872 0.904195 12.039 1.91674 13.2201C2.92928 14.4013 4.26542 15.2603 5.76035 15.6911C6.46788 15.8939 7.19995 15.9985 7.93597 16.0019C8.49557 16.0045 9.05391 15.9486 9.60188 15.8351C10.6463 15.6152 11.6361 15.1884 12.513 14.5799C13.3898 13.9713 14.1359 13.1934 14.7073 12.2919C14.7809 12.1759 14.8513 12.0567 14.9197 11.9376C15.236 11.376 15.4827 10.778 15.6543 10.1567C15.7123 9.94949 15.7579 9.73193 15.8034 9.51437C15.849 9.29681 15.877 9.07614 15.8998 8.85132C15.9267 8.59232 15.9405 8.33021 15.9412 8.06499C15.943 7.74547 15.9254 7.42613 15.8884 7.10875C15.8635 6.88912 15.829 6.67259 15.7848 6.45917C15.4743 4.91956 14.7163 3.50585 13.6057 2.39526C12.4951 1.28468 11.0814 0.526639 9.54179 0.216176C9.32837 0.172664 9.11081 0.138475 8.89117 0.112575C8.59611 0.0781511 8.29934 0.0605107 8.00228 0.0597386C7.71752 0.057861 7.43287 0.0716953 7.14964 0.101179C6.92586 0.122935 6.70416 0.156087 6.48659 0.197528C6.26903 0.238968 6.05458 0.287661 5.84323 0.345677C5.22176 0.51715 4.62367 0.764183 4.06233 1.08124C3.94215 1.14859 3.82301 1.21903 3.70698 1.28845C2.42904 2.09991 1.40682 3.25646 0.758493 4.6244C0.491081 5.18894 0.291802 5.7833 0.164859 6.39494C0.0560393 6.92227 0.000506325 7.45921 -0.000902561 7.99765Z" fill="#F07846"/>
<path opacity="0.1" d="M-0.000902561 7.99765C-0.0023959 8.34744 0.0187137 8.69696 0.0622941 9.04402C0.259542 10.5872 0.904195 12.039 1.91674 13.2201C2.92928 14.4013 4.26542 15.2603 5.76035 15.6911C6.46788 15.8939 7.19995 15.9985 7.93597 16.0019C8.49557 16.0045 9.05391 15.9486 9.60188 15.8351C10.6463 15.6152 11.6361 15.1884 12.513 14.5799C13.3898 13.9713 14.1359 13.1934 14.7073 12.2919C14.7809 12.1759 14.8513 12.0567 14.9197 11.9376C15.236 11.376 15.4827 10.778 15.6543 10.1567C15.7123 9.94949 15.7579 9.73193 15.8034 9.51437C15.849 9.29681 15.877 9.07614 15.8998 8.85132C15.9267 8.59232 15.9405 8.33021 15.9412 8.06499C15.943 7.74547 15.9254 7.42613 15.8884 7.10875C15.8635 6.88912 15.829 6.67259 15.7848 6.45917C15.4743 4.91956 14.7163 3.50585 13.6057 2.39526C12.4951 1.28468 11.0814 0.526639 9.54179 0.216176C9.32837 0.172664 9.11081 0.138475 8.89117 0.112575C8.59611 0.0781511 8.29934 0.0605107 8.00228 0.0597386C7.71752 0.057861 7.43287 0.0716953 7.14964 0.101179C6.92586 0.122935 6.70416 0.156087 6.48659 0.197528C6.26903 0.238968 6.05458 0.287661 5.84323 0.345677C5.22176 0.51715 4.62367 0.764183 4.06233 1.08124C3.94215 1.14859 3.82301 1.21903 3.70698 1.28845C2.42904 2.09991 1.40682 3.25646 0.758493 4.6244C0.491081 5.18894 0.291802 5.7833 0.164859 6.39494C0.0560393 6.92227 0.000506325 7.45921 -0.000902561 7.99765Z" fill="#FAD2C1"/>
<path opacity="0.05" d="M15.6291 5.82227C15.6892 6.02947 15.742 6.24496 15.7855 6.46252C15.829 6.68008 15.8632 6.89246 15.8891 7.1121C15.9261 7.42948 15.9438 7.74881 15.942 8.06834C15.942 8.33355 15.9282 8.59567 15.9005 8.85467C15.8777 9.07983 15.8456 9.30084 15.8042 9.51771C15.7627 9.73528 15.713 9.94869 15.655 10.16C15.4826 10.7792 15.2356 11.3752 14.9194 11.9347C14.851 12.0539 14.7806 12.173 14.707 12.289C13.9864 13.4317 12.9865 14.3719 11.8018 15.0209C10.6171 15.67 9.28655 16.0066 7.93568 15.999C7.64485 15.9971 7.35434 15.9795 7.06543 15.9462L15.6291 5.82227Z" fill="black"/>
<path opacity="0.05" d="M15.5049 10.6328C15.3493 11.0834 15.1531 11.519 14.9186 11.934C14.8502 12.0532 14.7797 12.1723 14.7062 12.2884C13.9821 13.4306 12.9801 14.3706 11.7939 15.0203L15.5049 10.6328Z" fill="black"/>
<path opacity="0.15" d="M14.54 3.51465C14.7966 3.88691 15.0205 4.28068 15.2092 4.69156L5.88515 15.724L5.75875 15.6898C5.3683 15.5755 4.98729 15.431 4.61914 15.2578L14.54 3.51465Z" fill="#FAD2C1"/>
<path opacity="0.15" d="M11.4909 0.876953C11.909 1.08376 12.3083 1.3264 12.6844 1.60216L2.41858 13.7463C2.08408 13.421 1.77868 13.067 1.50586 12.6885L11.4909 0.876953Z" fill="#FAD2C1"/>
<path opacity="0.15" d="M10.3268 0.413086C10.5734 0.489751 10.8151 0.577466 11.052 0.676232L1.2358 12.2878C1.09905 12.0713 0.969549 11.8496 0.853516 11.6196L10.3268 0.413086Z" fill="#FAD2C1"/>
<path opacity="0.15" d="M0.0214844 7.45313C0.0318445 7.30602 0.0473844 7.15994 0.0649966 7.01594C0.0712127 6.96724 0.0763928 6.91855 0.0836448 6.8709C0.0908969 6.82324 0.0981491 6.76729 0.106437 6.72275C0.125085 6.61914 0.143734 6.50518 0.16549 6.39744C0.480402 4.88932 1.2265 3.5051 2.31314 2.41294C2.73456 1.98799 3.20231 1.61164 3.70761 1.29094C3.82364 1.21739 3.94278 1.14694 4.06296 1.08374C4.6243 0.76668 5.22239 0.519648 5.84386 0.348175C5.9226 0.326419 6.00134 0.30777 6.08111 0.288086L0.0214844 7.45313Z" fill="#FAD2C1"/>
<path d="M2.03125 8.0313C2.03104 9.53773 2.60334 10.9879 3.63226 12.0882C4.66119 13.1885 6.06981 13.8566 7.57287 13.9573C7.70341 13.9656 7.83809 13.9707 7.97173 13.9707C9.53352 13.9501 11.0244 13.3152 12.1215 12.2035C13.2186 11.0918 13.8338 9.59271 13.8338 8.03079C13.8338 6.46886 13.2186 4.96977 12.1215 3.85806C11.0244 2.74634 9.53352 2.11145 7.97173 2.09082C7.83809 2.09082 7.70341 2.09082 7.57287 2.10429C6.06981 2.20544 4.66132 2.87385 3.63247 3.97426C2.60362 5.07466 2.03127 6.52485 2.03125 8.0313Z" fill="#F07846"/>
<path opacity="0.4" d="M2.03125 8.0313C2.03104 9.53773 2.60334 10.9879 3.63226 12.0882C4.66119 13.1885 6.06981 13.8566 7.57287 13.9573C7.70341 13.9656 7.83809 13.9707 7.97173 13.9707C9.53352 13.9501 11.0244 13.3152 12.1215 12.2035C13.2186 11.0918 13.8338 9.59271 13.8338 8.03079C13.8338 6.46886 13.2186 4.96977 12.1215 3.85806C11.0244 2.74634 9.53352 2.11145 7.97173 2.09082C7.83809 2.09082 7.70341 2.09082 7.57287 2.10429C6.06981 2.20544 4.66132 2.87385 3.63247 3.97426C2.60362 5.07466 2.03127 6.52485 2.03125 8.0313Z" fill="black"/>
<path d="M2.29492 8.03171C2.29492 8.13531 2.29492 8.23891 2.30321 8.33423C2.37702 9.71882 2.95524 11.0285 3.9287 12.0159C4.90215 13.0032 6.20346 13.6 7.58686 13.6935L7.66456 13.6987C7.76816 13.6987 7.86555 13.707 7.96708 13.707C9.38963 13.7097 10.7612 13.1775 11.8096 12.216C12.8581 11.2546 13.5067 9.93404 13.6268 8.51656C13.6413 8.35598 13.6475 8.19436 13.6475 8.02964C13.6475 7.86491 13.6423 7.73023 13.6309 7.58312C13.6078 7.27813 13.5593 6.97561 13.4859 6.67868C13.2376 5.67109 12.7182 4.75069 11.9841 4.01726C11.2499 3.28384 10.329 2.76537 9.32114 2.51806C9.02422 2.44468 8.72169 2.39617 8.41671 2.37302C8.26959 2.36162 8.12041 2.35645 7.97019 2.35645C7.84276 2.35645 7.71533 2.35645 7.58997 2.36888C7.55475 2.36888 7.51952 2.36888 7.48637 2.37717C6.65951 2.4463 5.85818 2.69749 5.13981 3.11273C4.27512 3.61001 3.55701 4.32671 3.05804 5.19042C2.55906 6.05412 2.29689 7.03423 2.29803 8.03171H2.29492Z" fill="#F07846"/>
<path opacity="0.5" d="M2.29492 8.03171C2.29492 8.13531 2.29492 8.23891 2.30321 8.33423C2.37702 9.71882 2.95524 11.0285 3.9287 12.0159C4.90215 13.0032 6.20346 13.6 7.58686 13.6935L7.66456 13.6987C7.76816 13.6987 7.86555 13.707 7.96708 13.707C9.38963 13.7097 10.7612 13.1775 11.8096 12.216C12.8581 11.2546 13.5067 9.93404 13.6268 8.51656C13.6413 8.35598 13.6475 8.19436 13.6475 8.02964C13.6475 7.86491 13.6423 7.73023 13.6309 7.58312C13.6078 7.27813 13.5593 6.97561 13.4859 6.67868C13.2376 5.67109 12.7182 4.75069 11.9841 4.01726C11.2499 3.28384 10.329 2.76537 9.32114 2.51806C9.02422 2.44468 8.72169 2.39617 8.41671 2.37302C8.26959 2.36162 8.12041 2.35645 7.97019 2.35645C7.84276 2.35645 7.71533 2.35645 7.58997 2.36888C7.55475 2.36888 7.51952 2.36888 7.48637 2.37717C6.65951 2.4463 5.85818 2.69749 5.13981 3.11273C4.27512 3.61001 3.55701 4.32671 3.05804 5.19042C2.55906 6.05412 2.29689 7.03423 2.29803 8.03171H2.29492Z" fill="black"/>
<path d="M11.9699 12.0587C12.9274 11.1136 13.5154 9.85725 13.6275 8.51656C13.642 8.35598 13.6493 8.19437 13.6493 8.02964C13.6493 7.86491 13.6431 7.73023 13.6317 7.58312C13.6085 7.27814 13.56 6.97561 13.4866 6.67868C13.2383 5.67109 12.7189 4.75069 11.9848 4.01726C11.2506 3.28384 10.3297 2.76537 9.32186 2.51806C9.02494 2.44469 8.72241 2.39617 8.41743 2.37302C8.27031 2.36162 8.12113 2.35645 7.97091 2.35645C7.84348 2.35645 7.71605 2.35645 7.59069 2.36888C7.55547 2.36888 7.52024 2.36888 7.48709 2.37717C6.66023 2.4463 5.8589 2.69749 5.14053 3.11273C4.89153 3.25857 4.65394 3.42307 4.42982 3.60484C3.89939 4.13064 3.47863 4.75653 3.19195 5.44621C2.90527 6.13588 2.75837 6.87561 2.75978 7.62249C2.75978 7.72609 2.75978 7.82451 2.7691 7.925C2.84246 9.30975 3.42055 10.6196 4.39409 11.6071C5.36764 12.5946 6.66919 13.1912 8.05275 13.2843H8.12942C8.23302 13.2895 8.33144 13.2926 8.43297 13.2926C9.71895 13.2939 10.9667 12.8552 11.9689 12.0494L11.9699 12.0587Z" fill="#F07846"/>
<path opacity="0.25" d="M11.9699 12.0587C12.9274 11.1136 13.5154 9.85725 13.6275 8.51656C13.642 8.35598 13.6493 8.19437 13.6493 8.02964C13.6493 7.86491 13.6431 7.73023 13.6317 7.58312C13.6085 7.27814 13.56 6.97561 13.4866 6.67868C13.2383 5.67109 12.7189 4.75069 11.9848 4.01726C11.2506 3.28384 10.3297 2.76537 9.32186 2.51806C9.02494 2.44469 8.72241 2.39617 8.41743 2.37302C8.27031 2.36162 8.12113 2.35645 7.97091 2.35645C7.84348 2.35645 7.71605 2.35645 7.59069 2.36888C7.55547 2.36888 7.52024 2.36888 7.48709 2.37717C6.66023 2.4463 5.8589 2.69749 5.14053 3.11273C4.89153 3.25857 4.65394 3.42307 4.42982 3.60484C3.89939 4.13064 3.47863 4.75653 3.19195 5.44621C2.90527 6.13588 2.75837 6.87561 2.75978 7.62249C2.75978 7.72609 2.75978 7.82451 2.7691 7.925C2.84246 9.30975 3.42055 10.6196 4.39409 11.6071C5.36764 12.5946 6.66919 13.1912 8.05275 13.2843H8.12942C8.23302 13.2895 8.33144 13.2926 8.43297 13.2926C9.71895 13.2939 10.9667 12.8552 11.9689 12.0494L11.9699 12.0587Z" fill="black"/>
<path d="M4.06445 1.08129C7.49468 -0.695469 10.2805 0.228652 12.1453 1.33718C14.839 3.14502 16.538 6.17328 15.6087 10.1754V10.1671C15.254 11.4982 14.5559 12.7129 13.5844 13.6895C14.5875 12.7099 15.3168 11.4848 15.6999 10.136V10.1433C16.5567 6.82804 15.4792 4.19554 13.6817 2.33797C11.7558 0.562248 8.49236 -1.19172 4.06445 1.08129Z" fill="#F5F5F5"/>
<path d="M7.11686 3.83653L7.11064 4.60111C7.11064 4.60111 6.32431 4.46228 5.42816 5.16988C5.39087 5.19992 5.35771 5.22893 5.32456 5.25794C5.13885 5.41874 4.99121 5.61881 4.8923 5.84368C4.7934 6.06854 4.74571 6.31258 4.75268 6.55813C4.74532 6.8059 4.79363 7.05216 4.89403 7.27879C4.99444 7.50542 5.14439 7.70664 5.33285 7.86765C5.36289 7.89355 5.39812 7.91738 5.42816 7.94328L5.43749 7.9526L5.54109 8.02719C5.57238 8.04937 5.6049 8.06978 5.63847 8.08832C5.65152 8.09696 5.665 8.10491 5.67888 8.11215C5.70349 8.12915 5.72948 8.14405 5.75658 8.1567C5.98245 8.27723 6.21812 8.37843 6.46107 8.45921C6.58021 8.50065 6.70349 8.53795 6.82678 8.57214C7.00497 8.6229 7.18316 8.66952 7.35307 8.71303L7.56027 8.7638C8.04513 8.88087 8.39841 8.97618 8.62218 9.10257C8.74771 9.15953 8.84875 9.25947 8.90709 9.38437C8.93337 9.45027 8.94674 9.52062 8.94646 9.59157C8.94646 9.88891 8.69885 10.1293 8.02544 10.1096C7.30852 10.0826 6.90551 9.79877 6.80917 9.36158L4.84075 9.7304C5.13808 10.6317 5.93892 11.2202 7.1956 11.4357V12.4209L8.81592 12.481V11.4958C9.49658 11.4388 10.0591 11.2533 10.4425 10.9415L10.4528 10.9332C10.6518 10.7699 10.8104 10.5628 10.916 10.3281C11.0217 10.0934 11.0717 9.83741 11.062 9.58017C11.0682 8.28205 10.0374 7.81896 8.93402 7.51644C7.90319 7.23983 6.98632 7.17145 6.98839 6.54052C6.98839 6.14684 7.34893 5.98315 7.87936 6.0018C8.72578 6.03184 9.05524 6.5312 9.12258 6.8938L11.1946 6.51773C11.1484 6.33184 11.0787 6.15256 10.9874 5.98418C10.8307 5.70297 10.613 5.46046 10.3502 5.27452C9.89026 4.94299 9.30595 4.75651 8.71957 4.66534V3.67699L7.11582 3.58789L7.11686 3.83653Z" fill="#F07846"/>
<path opacity="0.1" d="M7.11686 3.83653L7.11064 4.60111C7.11064 4.60111 6.32431 4.46228 5.42816 5.16988C5.39087 5.19992 5.35771 5.22893 5.32456 5.25794C5.13885 5.41874 4.99121 5.61881 4.8923 5.84368C4.7934 6.06854 4.74571 6.31258 4.75268 6.55813C4.74532 6.8059 4.79363 7.05216 4.89403 7.27879C4.99444 7.50542 5.14439 7.70664 5.33285 7.86765C5.36289 7.89355 5.39812 7.91738 5.42816 7.94328L5.43749 7.9526L5.54109 8.02719C5.57238 8.04937 5.6049 8.06978 5.63847 8.08832C5.65152 8.09696 5.665 8.10491 5.67888 8.11215C5.70349 8.12915 5.72948 8.14405 5.75658 8.1567C5.98245 8.27723 6.21812 8.37843 6.46107 8.45921C6.58021 8.50065 6.70349 8.53795 6.82678 8.57214C7.00497 8.6229 7.18316 8.66952 7.35307 8.71303L7.56027 8.7638C8.04513 8.88087 8.39841 8.97618 8.62218 9.10257C8.74771 9.15953 8.84875 9.25947 8.90709 9.38437C8.93337 9.45027 8.94674 9.52062 8.94646 9.59157C8.94646 9.88891 8.69885 10.1293 8.02544 10.1096C7.30852 10.0826 6.90551 9.79877 6.80917 9.36158L4.84075 9.7304C5.13808 10.6317 5.93892 11.2202 7.1956 11.4357V12.4209L8.81592 12.481V11.4958C9.49658 11.4388 10.0591 11.2533 10.4425 10.9415L10.4528 10.9332C10.6518 10.7699 10.8104 10.5628 10.916 10.3281C11.0217 10.0934 11.0717 9.83741 11.062 9.58017C11.0682 8.28205 10.0374 7.81896 8.93402 7.51644C7.90319 7.23983 6.98632 7.17145 6.98839 6.54052C6.98839 6.14684 7.34893 5.98315 7.87936 6.0018C8.72578 6.03184 9.05524 6.5312 9.12258 6.8938L11.1946 6.51773C11.1484 6.33184 11.0787 6.15256 10.9874 5.98418C10.8307 5.70297 10.613 5.46046 10.3502 5.27452C9.89026 4.94299 9.30595 4.75651 8.71957 4.66534V3.67699L7.11582 3.58789L7.11686 3.83653Z" fill="#FAD2C1"/>
<path d="M11.0619 9.57774C11.0599 9.14031 10.893 8.71973 10.5947 8.3998C10.3067 8.08899 9.89643 7.88179 9.44059 7.72017C8.98474 7.55856 8.48642 7.44874 7.99743 7.32131C7.76146 7.26483 7.53299 7.18067 7.31677 7.07059C7.21694 7.02239 7.13299 6.94665 7.0748 6.8523C7.01661 6.75795 6.98661 6.64892 6.98835 6.53809C6.9956 6.77533 7.14997 6.93488 7.35406 7.03537C7.57615 7.13667 7.80902 7.21244 8.04819 7.26122C8.54249 7.36156 9.03085 7.48918 9.51104 7.64351C9.96481 7.81031 10.3834 8.02476 10.662 8.35007C10.8032 8.51098 10.9109 8.69833 10.9791 8.90123C11.0421 9.12098 11.07 9.34928 11.0619 9.57774Z" fill="#FAD2C1"/>
<path d="M7.12012 3.58301L8.56949 3.78607L8.71868 4.66046L8.72386 3.6721L7.12012 3.58301Z" fill="#FAFAFA"/>
<path d="M7.19537 11.4297L7.33109 12.302L8.81362 12.475L7.19434 12.4149L7.19537 11.4297Z" fill="#FAFAFA"/>
<path opacity="0.15" d="M4.8418 9.72616C4.89568 9.88446 4.96764 10.036 5.05625 10.1779L5.62191 9.58008L4.8418 9.72616Z" fill="#FAD2C1"/>
<path opacity="0.15" d="M11.0596 9.53406C11.0652 9.29513 11.0196 9.05777 10.9258 8.83797C10.832 8.61816 10.6921 8.421 10.5157 8.25977L7.19531 11.776V12.4173L8.30074 12.4587L8.81874 11.9107V11.4963C8.97058 11.4835 9.12168 11.4631 9.27148 11.4351L11.0596 9.53406Z" fill="#FAD2C1"/>
<path opacity="0.15" d="M4.75977 6.75325C4.78167 7.02861 4.8733 7.29387 5.02602 7.52404L8.66449 3.66801L7.71965 3.61621L7.11358 4.25854V4.59938C7.00859 4.5874 6.90258 4.5874 6.7976 4.59938L4.75977 6.75325Z" fill="#FAD2C1"/>
<path opacity="0.15" d="M5.43522 7.95349L5.53882 8.02808C5.57011 8.05026 5.60263 8.07066 5.6362 8.08921C5.64925 8.09785 5.66273 8.1058 5.67661 8.11304C5.70121 8.13003 5.72721 8.14494 5.75431 8.15759C5.98018 8.27812 6.21585 8.37932 6.45879 8.4601C6.5137 8.47875 6.57068 8.49429 6.62663 8.5119L7.82944 7.23864C7.32801 7.09671 6.98509 6.92162 6.98612 6.53623C6.98716 6.15083 7.34666 5.97885 7.87709 5.9975C8.18612 5.9963 8.4873 6.09476 8.73594 6.27826L9.92114 5.02262C9.53937 4.84357 9.13344 4.7214 8.71626 4.66001V4.28809L5.33887 7.87165C5.36788 7.89651 5.40103 7.92034 5.429 7.94417L5.43522 7.95349Z" fill="#FAD2C1"/>
<path d="M2.87186 3.25467L3.00343 1.52246L3.135 3.25467L4.86721 3.38624L3.135 3.51885L3.00343 5.25003L2.87186 3.51885L1.13965 3.38624L2.87186 3.25467Z" fill="#FAD2C1"/>
<path d="M4.22979 4.6781L4.29403 3.83789L4.35722 4.6781L5.19743 4.74129L4.35722 4.80552L4.29403 5.64469L4.22979 4.80552L3.39062 4.74129L4.22979 4.6781Z" fill="#FAD2C1"/>
</svg>
